<?xml version="1.0" encoding="UTF-8"?>
<svg width="53px" height="43px" viewBox="0 0 53 43" version="1.1" xmlns="http://www.w3.org/2000/svg" xmlns:xlink="http://www.w3.org/1999/xlink">
    <!-- Generator: Sketch 42 (36781) - http://www.bohemiancoding.com/sketch -->
    <title>icon</title>
    <desc>Created with Sketch.</desc>
    <defs>
        <rect id="path-1" x="0" y="3" width="25" height="40" rx="3"></rect>
        <mask id="mask-2" maskContentUnits="userSpaceOnUse" maskUnits="objectBoundingBox" x="0" y="0" width="25" height="40" fill="white">
            <use xlink:href="#path-1"></use>
        </mask>
    </defs>
    <g id="website" stroke="none" stroke-width="1" fill="none" fill-rule="evenodd">
        <g id="pricing-default" transform="translate(-766.000000, -1398.000000)">
            <g id="action" transform="translate(250.000000, 1372.000000)">
                <g id="partners" transform="translate(486.000000, 0.000000)">
                    <g id="icon" transform="translate(30.000000, 26.000000)">
                        <use id="bg" stroke="#584CE6" mask="url(#mask-2)" stroke-width="4" xlink:href="#path-1"></use>
                        <path d="M41,2.04484302 C40.670638,2.01516261 40.3370897,2 40,2 C33.9248678,2 29,6.92486775 29,13 C29,19.0751322 33.9248678,24 40,24 C46.0751322,24 51,19.0751322 51,13 C51,12.6629103 50.9848374,12.329362 50.955157,12 L41,12 L41,2.04484302 Z" id="Combined-Shape" fill="#584CE6"></path>
                        <path d="M43,0.0448430155 C48.277138,0.520391391 52.4796086,4.72286202 52.955157,10 L43,10 L43,0.0448430155 Z" id="Combined-Shape" fill-opacity="0.300000012" fill="#584CE6"></path>
                        <rect id="bg" fill="#584CE6" x="41" y="30" width="2" height="9" rx="1"></rect>
                        <rect id="bg" fill="#584CE6" x="35" y="34" width="2" height="5" rx="1"></rect>
                        <rect id="bg" fill="#584CE6" x="29" y="36" width="2" height="3" rx="1"></rect>
                        <rect id="bg" fill="#584CE6" transform="translate(39.000000, 42.000000) scale(1, -1) translate(-39.000000, -42.000000) " x="29" y="41" width="20" height="2" rx="1"></rect>
                        <rect id="bg" fill="#584CE6" x="47" y="24" width="2" height="15" rx="1"></rect>
                        <rect id="Rectangle-3" fill="#584CE6" x="2" y="36" width="21" height="2"></rect>
                        <rect id="Rectangle-3" fill="#584CE6" x="2" y="8" width="21" height="2"></rect>
                        <path d="M12.5,28 C12.5,28 8,24.9852814 8,22.5 C8,20.0147186 10.0147186,18 12.5,18 C14.9852814,18 17,20.0147186 17,22.5 C17,24.9852814 12.5,28 12.5,28 Z M12.5,24 C13.3284271,24 14,23.3284271 14,22.5 C14,21.6715729 13.3284271,21 12.5,21 C11.6715729,21 11,21.6715729 11,22.5 C11,23.3284271 11.6715729,24 12.5,24 Z" id="bg" fill="#584CE6"></path>
                    </g>
                </g>
            </g>
        </g>
    </g>
</svg>