<?xml version="1.0" encoding="UTF-8"?>
<svg width="15px" height="16px" viewBox="0 0 15 16" version="1.1" xmlns="http://www.w3.org/2000/svg" xmlns:xlink="http://www.w3.org/1999/xlink">
    <!-- Generator: Sketch 42 (36781) - http://www.bohemiancoding.com/sketch -->
    <title>android</title>
    <desc>Created with Sketch.</desc>
    <defs></defs>
    <g id="website" stroke="none" stroke-width="1" fill="none" fill-rule="evenodd" opacity="0.5">
        <g id="home" transform="translate(-906.000000, -2223.000000)" fill="#001936">
            <g id="mobile" transform="translate(10.000000, 2071.000000)">
                <g id="text" transform="translate(720.000000, 99.000000)">
                    <g id="available" transform="translate(0.000000, 49.000000)">
                        <path d="M186,17 L186,18.9970707 C186,19.5509732 185.556135,20 185,20 C184.447715,20 184,19.5621186 184,18.9970707 L184,17 L183,17 L183,18.9970707 C183,19.5509732 182.556135,20 182,20 C181.447715,20 181,19.5621186 181,18.9970707 L181,17 L179.997545,17 C179.446616,17 179,16.5469637 179,16.0029699 L179,9.99703014 C179,9.4463856 179.446311,9 179.997545,9 L187.002455,9 C187.553384,9 188,9.45303631 188,9.99703014 L188,16.0029699 C188,16.5536144 187.553689,17 187.002455,17 L186,17 Z M179.027464,8 C179.276187,5.75002477 181.183723,4 183.5,4 C185.816277,4 187.723813,5.75002477 187.972536,8 L179.027464,8 Z M176,10.0029293 C176,9.44902676 176.443865,9 177,9 C177.552285,9 178,9.43788135 178,10.0029293 L178,14.9970707 C178,15.5509732 177.556135,16 177,16 C176.447715,16 176,15.5621186 176,14.9970707 L176,10.0029293 Z M189,10.0029293 C189,9.44902676 189.443865,9 190,9 C190.552285,9 191,9.43788135 191,10.0029293 L191,14.9970707 C191,15.5509732 190.556135,16 190,16 C189.447715,16 189,15.5621186 189,14.9970707 L189,10.0029293 Z" id="android"></path>
                    </g>
                </g>
            </g>
        </g>
    </g>
</svg>