<?xml version="1.0" encoding="UTF-8"?>
<svg width="16px" height="16px" viewBox="0 0 16 16" version="1.1" xmlns="http://www.w3.org/2000/svg" xmlns:xlink="http://www.w3.org/1999/xlink">
    <!-- Generator: Sketch 40.3 (33839) - http://www.bohemiancoding.com/sketch -->
    <title>facebook</title>
    <desc>Created with Sketch.</desc>
    <defs></defs>
    <g id="website" stroke="none" stroke-width="1" fill="none" fill-rule="evenodd">
        <g id="home" transform="translate(-247.000000, -3807.000000)" fill="#000000">
            <g id="footer" transform="translate(247.000000, 3775.000000)">
                <g id="column">
                    <g id="facebook" transform="translate(0.000000, 32.000000)">
                        <path d="M15.1168,0 L0.8768,0 C0.391523314,0.00351658989 -1.27414344e-05,0.397910573 0,0.8832 L0,15.1232 C0.00351658989,15.6084767 0.397910573,16.0000127 0.8832,16 L8.5456,16 L8.5456,9.8048 L6.4656,9.8048 L6.4656,7.3888 L8.5456,7.3888 L8.5456,5.608 C8.5456,3.5408 9.808,2.416 11.6512,2.416 C12.2737881,2.41353072 12.8960469,2.44504426 13.5152,2.5104 L13.5152,4.672 L12.2352,4.672 C11.232,4.672 11.0384,5.152 11.0384,5.848 L11.0384,7.3904 L13.4304,7.3904 L13.12,9.8048 L11.04,9.8048 L11.04,16 L15.1168,16 C15.6045779,16 16,15.6045779 16,15.1168 L16,0.8768 C15.9964834,0.391523314 15.6020894,-1.27414344e-05 15.1168,0 L15.1168,0 Z" id="Shape"></path>
                    </g>
                </g>
            </g>
        </g>
    </g>
</svg>