<?xml version="1.0" encoding="UTF-8"?>
<svg width="16px" height="20px" viewBox="0 0 16 20" version="1.1" xmlns="http://www.w3.org/2000/svg" xmlns:xlink="http://www.w3.org/1999/xlink">
    <!-- Generator: Sketch 42 (36781) - http://www.bohemiancoding.com/sketch -->
    <title>lock</title>
    <desc>Created with Sketch.</desc>
    <defs></defs>
    <g id="website" stroke="none" stroke-width="1" fill="none" fill-rule="evenodd">
        <g id="home" transform="translate(-900.000000, -4496.000000)" fill="#C1C8E5">
            <g id="reassurance" transform="translate(0.000000, 4454.000000)">
                <g id="lock" transform="translate(900.000000, 39.000000)">
                    <g transform="translate(0.000000, 3.000000)" id="Combined-Shape">
                        <path d="M7.03112708,19 C4.90128876,16.7396898 0,11.1718466 0,7.8 C0,3.49217895 3.581722,0 8,0 C12.418278,0 16,3.49217895 16,7.8 C16,11.1718466 11.0987112,16.7396898 8.96887292,19 L16,19 L16,20 L0,20 L0,19 L7.03112708,19 Z M8,10 C9.1045695,10 10,9.1045695 10,8 C10,6.8954305 9.1045695,6 8,6 C6.8954305,6 6,6.8954305 6,8 C6,9.1045695 6.8954305,10 8,10 Z"></path>
                    </g>
                </g>
            </g>
        </g>
    </g>
</svg>