<?xml version="1.0" encoding="UTF-8"?>
<svg width="16px" height="16px" viewBox="0 0 16 16" version="1.1" xmlns="http://www.w3.org/2000/svg" xmlns:xlink="http://www.w3.org/1999/xlink">
    <!-- Generator: Sketch 40.3 (33839) - http://www.bohemiancoding.com/sketch -->
    <title>instagram</title>
    <desc>Created with Sketch.</desc>
    <defs></defs>
    <g id="website" stroke="none" stroke-width="1" fill="none" fill-rule="evenodd">
        <g id="home" transform="translate(-247.000000, -3889.000000)" fill="#000000">
            <g id="footer" transform="translate(247.000000, 3775.000000)">
                <g id="column">
                    <g id="instagram" transform="translate(0.000000, 114.000000)">
                        <path d="M7.99746032,1.46978218 C10.1330159,1.46978218 10.3857143,1.4780198 11.2292063,1.51635644 C12.0088889,1.55184158 12.432381,1.68174257 12.7142857,1.7910495 C13.0620263,1.9188117 13.3766261,2.12278837 13.6349206,2.3879604 C13.9006188,2.64574342 14.1050002,2.95972025 14.2330159,3.30677228 C14.3425397,3.58811881 14.4726984,4.01077228 14.508254,4.78891089 C14.5466667,5.63041584 14.5549206,5.88293069 14.5549206,8.01425743 C14.5549206,10.1455842 14.5466667,10.3977822 14.508254,11.239604 C14.4726984,12.0177426 14.3425397,12.440396 14.2330159,12.7217426 C13.9639539,13.41781 13.4126866,13.9679857 12.7152381,14.2365149 C12.4333333,14.3458218 12.0098413,14.4757228 11.2301587,14.5112079 C10.3869841,14.5495446 10.1339683,14.5577822 7.9984127,14.5577822 C5.86285714,14.5577822 5.60984127,14.5495446 4.76666667,14.5112079 C3.98698413,14.4757228 3.56349206,14.3458218 3.2815873,14.2365149 C2.93384668,14.1087527 2.61924688,13.904776 2.36095238,13.639604 C2.09525422,13.3818209 1.89087284,13.0678441 1.76285714,12.7207921 C1.65333333,12.4394455 1.5231746,12.0167921 1.48761905,11.2386535 C1.44920635,10.3971485 1.44095238,10.1446337 1.44095238,8.01330693 C1.44095238,5.8819802 1.44920635,5.62978218 1.48761905,4.7879604 C1.5231746,4.00982178 1.65333333,3.58716832 1.76285714,3.30582178 C1.89087284,2.95876975 2.09525422,2.64479293 2.36095238,2.3870099 C2.61924688,2.12183788 2.93384668,1.91786121 3.2815873,1.79009901 C3.56349206,1.68079208 3.98698413,1.55089109 4.76666667,1.51540594 C5.60984127,1.47706931 5.86285714,1.46883168 7.9984127,1.46883168 L7.99746032,1.46978218 Z M7.9984127,0.0307326733 C5.82634921,0.0307326733 5.55396825,0.0399207921 4.70095238,0.0788910891 C3.84793651,0.117861386 3.26730159,0.253465347 2.75936508,0.450534653 C2.22549841,0.650898768 1.74186852,0.965111458 1.34222222,1.37124752 C0.93528033,1.77010244 0.620444202,2.25277465 0.41968254,2.78558416 C0.222222222,3.29251485 0.086984127,3.8729505 0.0482539683,4.72237624 C0.00952380952,5.57180198 0,5.84554455 0,8.01330693 C0,10.1810693 0.00920634921,10.4529109 0.0482539683,11.3042376 C0.0873015873,12.1555644 0.222222222,12.734099 0.41968254,13.2410297 C0.620525953,13.7736125 0.935357362,14.2560613 1.34222222,14.6547327 C1.7418372,15.0609831 2.22546945,15.3753055 2.75936508,15.5757624 C3.26730159,15.7731485 3.84952381,15.9081188 4.70063492,15.9467723 C5.55174603,15.9854257 5.82603175,15.9949307 7.99809524,15.9949307 C10.1701587,15.9949307 10.4425397,15.9857426 11.2955556,15.9467723 C12.1485714,15.907802 12.727619,15.7731485 13.2355556,15.5757624 C14.3100344,15.1611014 15.159437,14.3133809 15.5749206,13.2410297 C15.7726984,12.734099 15.9079365,12.1530297 15.9466667,11.303604 C15.9853968,10.4541782 15.9949206,10.1804356 15.9949206,8.01267327 C15.9949206,5.84491089 15.9857143,5.57306931 15.9466667,4.72174257 C15.907619,3.87041584 15.7726984,3.29251485 15.5749206,2.78558416 C15.3740772,2.25300133 15.0592458,1.7705526 14.652381,1.37188119 C14.2528892,0.965554805 13.7693666,0.651125152 13.2355556,0.450534653 C12.727619,0.253465347 12.1460317,0.11849505 11.2949206,0.0798415842 C10.4438095,0.0411881188 10.1695238,0.0316831683 7.99746032,0.0316831683 L7.9984127,0.0307326733 Z" id="Shape"></path>
                        <path d="M7.99746032,3.91477228 C5.72941094,3.91477228 3.89079365,5.74974874 3.89079365,8.01330693 C3.89079365,10.2768651 5.72941094,12.1118416 7.99746032,12.1118416 C10.2655097,12.1118416 12.104127,10.2768651 12.104127,8.01330693 C12.104127,5.74974874 10.2655097,3.91477228 7.99746032,3.91477228 L7.99746032,3.91477228 Z M7.99746032,10.6746931 C6.52470098,10.6746931 5.33079365,9.48314991 5.33079365,8.01330693 C5.33079365,6.54346395 6.52470098,5.35192079 7.99746032,5.35192079 C9.47021965,5.35192079 10.664127,6.54346395 10.664127,8.01330693 C10.664127,9.48314991 9.47021965,10.6746931 7.99746032,10.6746931 L7.99746032,10.6746931 Z" id="Shape"></path>
                        <ellipse id="Oval" cx="12.2666667" cy="3.75255446" rx="0.95968254" ry="0.957782178"></ellipse>
                    </g>
                </g>
            </g>
        </g>
    </g>
</svg>