<?xml version="1.0" encoding="UTF-8"?>
<svg width="21px" height="16px" viewBox="0 0 21 16" version="1.1" xmlns="http://www.w3.org/2000/svg" xmlns:xlink="http://www.w3.org/1999/xlink">
    <!-- Generator: Sketch 42 (36781) - http://www.bohemiancoding.com/sketch -->
    <title>menu</title>
    <desc>Created with Sketch.</desc>
    <defs></defs>
    <g id="website" stroke="none" stroke-width="1" fill="none" fill-rule="evenodd" opacity="0.399999976">
        <g id="home" transform="translate(-283.000000, -96.000000)" fill="#000000">
            <g id="header" transform="translate(15.000000, 95.000000)">
                <path d="M268,2 C268,1.44771525 268.438615,1 268.998746,1 L288.001254,1 C288.552846,1 289,1.44386482 289,2 C289,2.55228475 288.561385,3 288.001254,3 L268.998746,3 C268.447154,3 268,2.55613518 268,2 Z M268,9 C268,8.44771525 268.438615,8 268.998746,8 L288.001254,8 C288.552846,8 289,8.44386482 289,9 C289,9.55228475 288.561385,10 288.001254,10 L268.998746,10 C268.447154,10 268,9.55613518 268,9 Z M268,16 C268,15.4477153 268.438615,15 268.998746,15 L288.001254,15 C288.552846,15 289,15.4438648 289,16 C289,16.5522847 288.561385,17 288.001254,17 L268.998746,17 C268.447154,17 268,16.5561352 268,16 Z" id="menu"></path>
            </g>
        </g>
    </g>
</svg>