<?xml version="1.0" encoding="UTF-8"?>
<svg width="16px" height="12px" viewBox="0 0 16 12" version="1.1" xmlns="http://www.w3.org/2000/svg" xmlns:xlink="http://www.w3.org/1999/xlink">
    <!-- Generator: Sketch 40.3 (33839) - http://www.bohemiancoding.com/sketch -->
    <title>twitter</title>
    <desc>Created with Sketch.</desc>
    <defs></defs>
    <g id="website" stroke="none" stroke-width="1" fill="none" fill-rule="evenodd">
        <g id="home" transform="translate(-247.000000, -3836.000000)" fill="#000000">
            <g id="footer" transform="translate(247.000000, 3775.000000)">
                <g id="column">
                    <g id="twitter" transform="translate(0.000000, 61.000000)">
                        <path d="M15.8832,1.41481481 C15.2903729,1.65845353 14.6615694,1.8187403 14.0176,1.89037037 C14.7008561,1.51443032 15.2127803,0.920872183 15.4576,0.220740741 C14.8146365,0.573163882 14.1110748,0.820713363 13.3776,0.952592593 C12.3674254,-0.0429023857 10.7614553,-0.286826819 9.46073891,0.357676066 C8.16002248,1.00217895 7.48827968,2.3747064 7.8224,3.70518519 C5.20081414,3.58461325 2.75795118,2.43857878 1.1024,0.552592593 C0.237771478,1.93122828 0.679056502,3.69468211 2.1104,4.58074074 C1.59385874,4.56370594 1.08918576,4.43266162 0.6384,4.19851852 L0.6384,4.23703704 C0.636537247,5.67517027 1.73043801,6.91491455 3.2528,7.2 C2.77279377,7.3208126 2.2693321,7.33854726 1.7808,7.25185185 C2.20739061,8.47933434 3.42845434,9.3207496 4.8208,9.34666667 C3.66756503,10.1847608 2.24362545,10.6397269 0.7776,10.6385185 C0.517746265,10.6388054 0.258098812,10.6249543 0,10.597037 C1.48998639,11.4835562 3.22411293,11.954149 4.9952,11.9525926 C10.9888,11.9525926 14.2672,7.36 14.2672,3.36740741 C14.2672,3.23703704 14.264,3.10716049 14.2576,2.97777778 C14.8955057,2.55041259 15.4459897,2.0211396 15.8832,1.41481481 Z" id="Shape"></path>
                    </g>
                </g>
            </g>
        </g>
    </g>
</svg>