<?xml version="1.0" encoding="UTF-8"?>
<svg width="16px" height="11px" viewBox="0 0 16 11" version="1.1" xmlns="http://www.w3.org/2000/svg" xmlns:xlink="http://www.w3.org/1999/xlink">
    <!-- Generator: Sketch 40.3 (33839) - http://www.bohemiancoding.com/sketch -->
    <title>youtube</title>
    <desc>Created with Sketch.</desc>
    <defs></defs>
    <g id="website" stroke="none" stroke-width="1" fill="none" fill-rule="evenodd">
        <g id="home" transform="translate(-247.000000, -3864.000000)" fill="#000000">
            <g id="footer" transform="translate(247.000000, 3775.000000)">
                <g id="column">
                    <g id="youtube" transform="translate(0.000000, 89.000000)">
                        <path d="M15.8313894,2.37104312 C15.8313894,2.37104312 15.6748337,1.29414465 15.1956164,0.819874826 C14.5880235,0.197510431 13.9057534,0.194297636 13.5937378,0.158038943 C11.3559295,0 7.99921722,0 7.99921722,0 L7.99232877,0 C7.99232877,0 4.63561644,0 2.39780822,0.158038943 C2.08579256,0.194297636 1.40383562,0.197510431 0.795459883,0.819874826 C0.316712329,1.29414465 0.160156556,2.37104312 0.160156556,2.37104312 C0.160156556,2.37104312 0,3.63566064 0,4.90027816 L0,6.08579972 C0,7.35041725 0.160156556,8.61503477 0.160156556,8.61503477 C0.160156556,8.61503477 0.316712329,9.69193324 0.795459883,10.1662031 C1.40383562,10.7885675 2.20289628,10.7689847 2.55874755,10.8341586 C3.83812133,10.9541029 7.99577299,10.9911266 7.99577299,10.9911266 C7.99577299,10.9911266 11.3559295,10.9862309 13.5937378,10.8280389 C13.9068493,10.7916273 14.5878669,10.7885675 15.1960861,10.1660501 C15.6748337,9.69193324 15.8313894,8.61503477 15.8313894,8.61503477 C15.8313894,8.61503477 15.9910763,7.35041725 15.9910763,6.08579972 L15.9910763,4.90027816 C15.9913894,3.63566064 15.8313894,2.37104312 15.8313894,2.37104312 Z M6.34410959,7.52253129 L6.34410959,3.13171071 L10.6650489,5.33477051 L6.34410959,7.52253129 Z" id="Shape"></path>
                    </g>
                </g>
            </g>
        </g>
    </g>
</svg>