<?xml version="1.0" encoding="UTF-8"?>
<svg width="491px" height="511px" viewBox="0 0 491 511" version="1.1" xmlns="http://www.w3.org/2000/svg" xmlns:xlink="http://www.w3.org/1999/xlink">
    <!-- Generator: Sketch 42 (36781) - http://www.bohemiancoding.com/sketch -->
    <title>bg</title>
    <desc>Created with Sketch.</desc>
    <defs>
        <circle id="path-1" cx="201" cy="231" r="5"></circle>
        <filter x="-50%" y="-50%" width="200%" height="200%" filterUnits="objectBoundingBox" id="filter-2">
            <feGaussianBlur stdDeviation="11.5" in="SourceAlpha" result="shadowBlurInner1"></feGaussianBlur>
            <feOffset dx="0" dy="0" in="shadowBlurInner1" result="shadowOffsetInner1"></feOffset>
            <feComposite in="shadowOffsetInner1" in2="SourceAlpha" operator="arithmetic" k2="-1" k3="1" result="shadowInnerInner1"></feComposite>
            <feColorMatrix values="0 0 0 0 0.905   0 0 0 0 0.9563   0 0 0 0 1  0 0 0 1 0" type="matrix" in="shadowInnerInner1"></feColorMatrix>
        </filter>
        <linearGradient x1="53.779699%" y1="2.90780784%" x2="50%" y2="84.1594828%" id="linearGradient-3">
            <stop stop-color="#B5BCF4" offset="0%"></stop>
            <stop stop-color="#F1F4FE" offset="100%"></stop>
        </linearGradient>
        <circle id="path-4" cx="3" cy="3" r="3"></circle>
        <path d="M60.8905465,20.1782048 L60.7681254,19.9849728 C60.6584827,19.6236149 60.6154141,19.2335185 60.6389182,18.8146718 C60.6624223,18.3958252 60.7560539,17.9605598 60.9287482,17.4842245 C61.1520599,16.8682736 61.4715226,16.2913415 61.887146,15.753411 C62.3027693,15.2154806 62.781316,14.7473649 63.3228003,14.34905 C63.8642846,13.950735 64.4501863,13.6345516 65.080523,13.4004903 C65.7108597,13.1664289 66.3508989,13.0494 67.0006597,13.0494 C67.6504206,13.0494 68.2076081,13.1664289 68.6722388,13.4004903 C69.1368695,13.6345516 69.4940246,13.9548413 69.743715,14.3613689 C69.9934054,14.7678965 70.1330401,15.2401185 70.1626233,15.778049 C70.1922065,16.3159794 70.0953437,16.8929115 69.8630996,17.5335003 C69.6397879,18.1494513 69.3203252,18.7263833 68.9047018,19.2643138 C68.4890785,19.8022442 68.0105318,20.2703599 67.4690475,20.6686749 C66.9275632,21.0669898 66.3416615,21.3831732 65.7113248,21.6172345 C65.0809881,21.8512959 64.4409489,21.9683248 63.791188,21.9683248 C63.7039224,21.9683248 63.618396,21.966161 63.5346087,21.9618333 L63.5540762,22 L59.4208,22 L60.0812879,20.1782048 L60.8905465,20.1782048 Z M66.6535364,14.8109651 C66.561122,14.7993613 66.4650456,14.7934 66.3654926,14.7934 C64.9387847,14.7934 63.3383255,16.0177445 62.7907668,17.52805 C62.2432082,19.0383555 62.9558995,20.2627 64.3826074,20.2627 C65.8093153,20.2627 67.4097745,19.0383555 67.9573332,17.52805 C68.1208438,17.0770463 68.1719748,16.6515424 68.1252717,16.2765261 C68.1017397,16.0201761 68.0358271,15.7903769 67.9275329,15.5871237 C67.7962621,15.3407465 67.6015218,15.1477539 67.3433063,15.0081401 C67.1475285,14.9022856 66.9176065,14.8365609 66.6535364,14.8109651 Z" id="path-6"></path>
        <path d="M0,27 L5,18 L8,12 C8,12 5.17394513,12.2493959 5,9 C5.17394513,6.70133994 8,5 8,5 L9,11 L12,11 L12,5 C12,5 14.8908969,5.76821695 16,4 C17.1293352,2.31189967 18,0 18,0 L24,0 C24,0 25.0245925,1.06851449 26,3 C26.1824914,4.04005831 28,15 28,15 L25,15 L24.1108383,23.0024554 C24.049624,23.553384 23.5562834,24.0887433 23.0121609,24.1975678 L19,25 L20,33 L20,38 L0,38 L0,27 Z" id="path-8"></path>
        <circle id="path-10" cx="1" cy="1" r="1"></circle>
        <path d="M2,17.9999889 C2,20.7115729 3.31368868,24.7936674 5,24.9999846 C5.79401452,25.7011734 10,27.9999828 10,27.9999828 L8,34.9999785 C8,34.9999785 14.9875889,37.4646769 18,34.9999785 C21.0124111,32.53528 23,26.9999834 23,26.9999834 L23,18.9999883 C23,18.9999883 26,18.0298466 26,15.9999902 C26,13.6100657 26,9.99999385 26,9.99999385 L23,11.9999926 C23,11.9999926 17.2551089,9.99770429 16,6.99999569 C15.5465911,4.52659582 14,0 14,0 C14,0 12.4079334,3.04128028 9,2.99999815 C6.35077032,3.04128028 2,2.99999815 2,2.99999815 L0,15.9999902 L2,15.9999902 L2,17.9999889 Z" id="path-12"></path>
        <circle id="path-14" cx="6" cy="1" r="1"></circle>
        <linearGradient x1="50%" y1="-2.48949813e-15%" x2="50%" y2="100%" id="linearGradient-16">
            <stop stop-color="#00BEA2" offset="0%"></stop>
            <stop stop-color="#77DECD" offset="100%"></stop>
        </linearGradient>
        <path d="M0,29 L5,21 L8,15 C8,15 4.48400372,14.2528139 4.31005859,11.003418 C4.48400372,8.70475791 8,8 8,8 L9,14 L12,14 L12,5 C12,5 14.8908969,5.76821695 16,4 C17.1293352,2.31189967 18,0 18,0 L24,0 C24,0 25.0245925,1.06851449 26,3 C26.1824914,4.04005831 31,15 31,15 L26,15 C26,15 27.9297377,25.5340576 26,27 C24.0950292,28.6171496 19,28 19,28 L20,36 C20,36 22.3793922,42 16,42 C10.5250688,42 0,40 0,40 L0,29 Z" id="path-17"></path>
        <circle id="path-19" cx="2" cy="1" r="1"></circle>
    </defs>
    <g id="website" stroke="none" stroke-width="1" fill="none" fill-rule="evenodd">
        <g id="home" transform="translate(-208.000000, -195.000000)">
            <g id="hero" transform="translate(208.000000, 195.000000)">
                <g id="bg">
                    <path d="M0.305495193,427.694505 C51.2333138,479.134309 121.895341,511 200,511 C355.192015,511 481,385.192015 481,230 C481,151.895341 449.134309,81.2333138 397.694505,30.3054952 L0.305495193,427.694505 Z" id="Combined-Shape" fill-opacity="0.0855" fill="#0B3BDE" opacity="0.7"></path>
                    <path d="M239.93055,381.901889 L239.93055,449.95815 L278.35045,449.95815 L278.35045,404.083629 L239.93055,381.901889 Z M239.93055,377.148597 C240.192597,377.186348 240.452231,377.273781 240.696072,377.414563 L321.832777,424.258861 C322.854985,424.849033 323.209944,426.147941 322.616423,427.17595 C322.027011,428.196842 320.723179,428.547535 319.698327,427.955837 L282.61935,406.54828 L282.61935,449.95815 L301.715898,449.95815 C302.896242,449.95815 303.8531,450.905557 303.8531,452.0926 C303.8531,453.271424 302.899295,454.22705 301.715898,454.22705 L239.93055,454.22705 L239.93055,464.855877 C239.93055,466.040043 238.983142,467 237.7961,467 C236.617275,467 235.66165,466.04036 235.66165,464.855877 L235.66165,454.22705 L208.027301,454.22705 C206.846957,454.22705 205.8901,453.279643 205.8901,452.0926 C205.8901,450.913776 206.843905,449.95815 208.027301,449.95815 L235.66165,449.95815 L235.66165,354.144123 C235.66165,352.959957 236.609057,352 237.7961,352 C238.974924,352 239.93055,352.95964 239.93055,354.144123 L239.93055,377.148597 Z" id="street" fill="#D9CEF7" opacity="0.2912" transform="translate(264.397175, 409.500000) scale(-1, -1) translate(-264.397175, -409.500000) "></path>
                    <path d="M184.5,382 C184.5,382 197,370.382 197,363.486111 C197,356.590222 191.403559,351 184.5,351 C177.596441,351 172,356.590222 172,363.486111 C172,370.382 184.5,382 184.5,382 Z" id="poi" fill-opacity="0.2499" fill="#8256F5"></path>
                    <circle fill-opacity="0.1394" fill="#8256F5" cx="201" cy="231" r="159"></circle>
                    <circle fill-opacity="0.5853" fill="#FFFFFF" cx="256" cy="226" r="22"></circle>
                    <g fill-opacity="1" fill="black">
                        <use filter="url(#filter-2)" xlink:href="#path-1"></use>
                    </g>
                    <g id="illustration" transform="translate(14.000000, 0.000000)">
                        <path d="M143.374032,137.792067 L150.049333,144.467368 L143.469068,151.047633 L136.793767,144.372332 L143.374032,137.792067 Z M169.120432,137.792067 L175.795733,144.467368 L169.215468,151.047633 L162.540167,144.372332 L169.120432,137.792067 Z M117.627732,103.952467 L124.303033,110.627768 L117.722768,117.208033 L111.047467,110.532732 L117.627732,103.952467 Z M143.374032,103.952467 L150.049333,110.627768 L143.469068,117.208033 L136.793767,110.532732 L143.374032,103.952467 Z M154.530832,120.872267 L161.206133,127.547568 L154.625868,134.127833 L147.950567,127.452532 L154.530832,120.872267 Z M180.277132,120.872267 L186.952433,127.547568 L180.372168,134.127833 L173.696867,127.452532 L180.277132,120.872267 Z" id="data" fill-opacity="0.2" fill="#FFFFFF"></path>
                        <path d="M92.0404,104.901889 L92.0404,130.95665 L130.4603,130.95665 L130.4603,127.083629 L92.0404,104.901889 Z M92.0404,100.148597 C92.3024471,100.186348 92.5620814,100.273781 92.8059227,100.414563 L173.942627,147.258861 C174.964835,147.849033 175.319795,149.147941 174.726273,150.17595 C174.136861,151.196842 172.833029,151.547535 171.808177,150.955837 L144.418951,135.14266 C144.231741,135.196635 144.034084,135.22555 143.829884,135.22555 L134.7292,135.22555 L134.7292,172.95815 L153.825748,172.95815 C155.006092,172.95815 155.96295,173.905557 155.96295,175.0926 C155.96295,176.271424 155.009145,177.22705 153.825748,177.22705 L92.0404,177.22705 L92.0404,187.855877 C92.0404,189.040043 91.0929927,190 89.90595,190 C88.7271258,190 87.7715,189.04036 87.7715,187.855877 L87.7715,177.22705 L60.1371517,177.22705 C58.9568078,177.22705 57.99995,176.279643 57.99995,175.0926 C57.99995,173.913776 58.953755,172.95815 60.1371517,172.95815 L87.7715,172.95815 L87.7715,77.1441233 C87.7715,75.9599567 88.7189073,75 89.90595,75 C91.0847742,75 92.0404,75.9596401 92.0404,77.1441233 L92.0404,100.148597 Z M137.168569,130.95665 L134.7292,129.54828 L134.7292,130.95665 L137.168569,130.95665 Z M92.0404,135.22555 L92.0404,172.95815 L130.4603,172.95815 L130.4603,135.22555 L92.0404,135.22555 Z" id="street" fill="#FFFFFF" opacity="0.5" transform="translate(116.507025, 132.500000) scale(1, -1) translate(-116.507025, -132.500000) "></path>
                        <path d="M80.9305496,203.901889 L80.9305496,271.95815 L119.35045,271.95815 L119.35045,226.083629 L80.9305496,203.901889 Z M80.9305496,199.148597 C81.1925967,199.186348 81.452231,199.273781 81.6960722,199.414563 L162.832777,246.258861 C163.854985,246.849033 164.209944,248.147941 163.616423,249.17595 C163.027011,250.196842 161.723179,250.547535 160.698327,249.955837 L123.61935,228.54828 L123.61935,271.95815 L142.715898,271.95815 C143.896242,271.95815 144.8531,272.905557 144.8531,274.0926 C144.8531,275.271424 143.899295,276.22705 142.715898,276.22705 L80.9305496,276.22705 L80.9305496,286.855877 C80.9305496,288.040043 79.9831423,289 78.7960996,289 C77.6172754,289 76.6616496,288.04036 76.6616496,286.855877 L76.6616496,276.22705 L49.0273013,276.22705 C47.8469574,276.22705 46.8900996,275.279643 46.8900996,274.0926 C46.8900996,272.913776 47.8439046,271.95815 49.0273013,271.95815 L76.6616496,271.95815 L76.6616496,176.144123 C76.6616496,174.959957 77.6090569,174 78.7960996,174 C79.9749238,174 80.9305496,174.95964 80.9305496,176.144123 L80.9305496,199.148597 Z" id="street" fill="#FFFFFF" opacity="0.5" transform="translate(105.397175, 231.500000) scale(-1, -1) translate(-105.397175, -231.500000) "></path>
                        <path d="M115.5,127 C115.5,127 128,115.382 128,108.486111 C128,101.590222 122.403559,96 115.5,96 C108.596441,96 103,101.590222 103,108.486111 C103,115.382 115.5,127 115.5,127 Z" id="poi" fill-opacity="0.2499" fill="#8256F5"></path>
                        <path d="M63.5,187 C63.5,187 76,175.382 76,168.486111 C76,161.590222 70.4035594,156 63.5,156 C56.5964406,156 51,161.590222 51,168.486111 C51,175.382 63.5,187 63.5,187 Z" id="poi" fill-opacity="0.2499" fill="#8256F5"></path>
                        <g id="person" transform="translate(306.500000, 171.000000) scale(-1, 1) translate(-306.500000, -171.000000) translate(144.000000, 0.000000)">
                            <path d="M180.211375,21.1059701 C171.992727,16.5769523 162.547313,14 152.50002,14 C127.549857,14 106.311267,29.8911384 98.3534193,52.1042427 C96.1825839,58.1637949 117.310579,67.55415 117.310579,74.3603516 C117.310579,106.116725 120.743658,129 152.50002,129 C184.256382,129 210,103.256373 210,71.5 C210,67.2071032 209.529555,63.0240847 208.637408,58.9996867 C224.866596,58.9256752 238,45.7465731 238,29.5 C238,13.2075999 224.7924,0 208.5,0 C195.123789,0 183.826907,8.90266371 180.211375,21.1059701 Z" id="hair" fill="#F46E4A"></path>
                            <path d="M50,297 L209,297 L209,166.714895 C209,166.714895 159.661269,148.872367 144.85609,152.482193 C130.050912,156.09202 106.828319,190.582666 106.828319,190.582666 C103.623119,195.073972 98.8118149,202.603579 96.0800502,207.403887 L87.0514106,223.26918 C78.8563527,237.669688 66.5358117,261.523519 59.5411381,276.530124 L50,297 Z" id="bg" fill="url(#linearGradient-3)"></path>
                            <path d="M293,342 L260,342 L213,342 L213.9375,332 L212,332 L212,288 L227,288 L227,303.304348 L239,296 L259,308.727273 L259,242 L294,278 L294,322.67448 L304.777778,316 L317,323.913043 L325,342 L293,342 Z" id="bg" fill-opacity="0.2" fill="#0B3BDE"></path>
                            <g id="crowd" transform="translate(0.000000, 274.000000)">
                                <g id="characters" transform="translate(87.000000, 0.000000)">
                                    <g id="character" transform="translate(106.000000, 11.666700) scale(-1, 1) translate(-106.000000, -11.666700) translate(100.000000, 0.666700)">
                                        <polygon id="bg" fill="#584CE6" points="4.92015109 21.2642 4.92015109 17.4716673 2.7114 11.6329931 3.56586521 5.42211311 4.92015109 4.5243 4.92015109 6.61379 4.92015109 9.84048642 5.69248809 13.2991434 10.1191156 14.753624 11.4756 17.4716673 10.3596932 21.2642"></polygon>
                                        <rect id="bg" fill="#C4A6FF" x="0" y="0" width="9" height="6"></rect>
                                        <path d="M8.54833221,10.2494304 C8.54833221,10.2494304 9.79651191,8.15364475 8.14298586,8.15364475 C6.4894598,8.15364475 4.56913532,7.60376555 5.32303586,8.584528 C6.0769364,9.56529045 3.16306089,10.8839597 4.24304838,12.1564877 C5.32303586,13.4290158 6.48821162,14.8476 6.48821162,14.8476 L7.96668047,12.9221555 L8.54833221,10.2494304 Z" id="bg" fill="#8256F5"></path>
                                        <path d="M8.91254892,13.5325342 C8.91254892,13.5325342 9.2179365,12.3604861 8.6873469,11.030944 C8.1567573,9.70140192 7.17064544,9.40375053 6.07420735,9.8356991 C4.97776925,10.2676477 5.25702803,12.3209295 6.22007683,13.1989888 C7.18312564,14.0770482 7.66654483,14.6074 7.66654483,14.6074 L8.91254892,13.5325342 Z" id="bg" fill="#C4A6FF" transform="translate(7.183350, 12.129250) rotate(14.000000) translate(-7.183350, -12.129250) "></path>
                                    </g>
                                    <g id="character" transform="translate(64.500000, 12.166700) scale(-1, 1) translate(-64.500000, -12.166700) translate(59.000000, 1.666700)">
                                        <polygon id="bg" fill="#584CE6" points="3.92015109 20.2642 3.92015109 16.4716673 1.7114 10.6329931 2.56586521 4.42211311 3.92015109 3.5243 3.92015109 5.61379 3.92015109 8.84048642 4.69248809 12.2991434 9.11911562 13.753624 10.4756 16.4716673 9.3596932 20.2642"></polygon>
                                        <rect id="bg" fill="#C4A6FF" x="0" y="0" width="6" height="6"></rect>
                                        <path d="M8.54833221,9.24943037 C8.54833221,9.24943037 9.79651191,7.15364475 8.14298586,7.15364475 C6.4894598,7.15364475 4.56913532,6.60376555 5.32303586,7.584528 C6.0769364,8.56529045 3.16306089,9.88395974 4.24304838,11.1564877 C5.32303586,12.4290158 6.48821162,13.8476 6.48821162,13.8476 L7.96668047,11.9221555 L8.54833221,9.24943037 Z" id="bg" fill="#8256F5"></path>
                                        <path d="M7.91254892,12.5325342 C7.91254892,12.5325342 8.2179365,11.3604861 7.6873469,10.030944 C7.1567573,8.70140192 6.17064544,8.40375053 5.07420735,8.8356991 C3.97776925,9.26764767 4.25702803,11.3209295 5.22007683,12.1989888 C6.18312564,13.0770482 6.66654483,13.6074 6.66654483,13.6074 L7.91254892,12.5325342 Z" id="bg" fill="#C4A6FF" transform="translate(6.183350, 11.129250) rotate(14.000000) translate(-6.183350, -11.129250) "></path>
                                    </g>
                                    <g id="character" transform="translate(0.000000, 7.666700)">
                                        <polygon id="bg" fill="#584CE6" points="4.92014814 14.2642 4.92014814 10.4716677 0.7114 7.63299225 1.56586559 1.42211301 2.92015208 0.5243 2.92015208 2.61378976 2.92015208 5.84048581 5.69248549 6.29914437 10.119115 7.75362477 11.4756 10.4716677 10.3596927 14.2642"></polygon>
                                        <path d="M9.54833221,3.24943037 C9.54833221,3.24943037 10.7965119,1.15364475 9.14298586,1.15364475 C7.4894598,1.15364475 5.56913532,0.603765551 6.32303586,1.584528 C7.0769364,2.56529045 4.16306089,3.88395974 5.24304838,5.15648775 C6.32303586,6.42901575 7.48821162,7.8476 7.48821162,7.8476 L8.96668047,5.9221555 L9.54833221,3.24943037 Z" id="bg" fill="#8256F5"></path>
                                        <path d="M8.91254892,6.53253421 C8.91254892,6.53253421 9.2179365,5.36048609 8.6873469,4.030944 C8.1567573,2.70140192 7.17064544,2.40375053 6.07420735,2.8356991 C4.97776925,3.26764767 5.25702803,5.32092946 6.22007683,6.19898884 C7.18312564,7.07704823 7.66654483,7.6074 7.66654483,7.6074 L8.91254892,6.53253421 Z" id="bg" fill="#C4A6FF" transform="translate(7.183350, 5.129250) rotate(14.000000) translate(-7.183350, -5.129250) "></path>
                                    </g>
                                    <g id="character" transform="translate(84.500000, 15.666700) scale(-1, 1) translate(-84.500000, -15.666700) translate(80.000000, 8.666700)">
                                        <polygon id="bg" fill="#4C90DD" points="1.92015068 13.2642 1.92015068 9.4716466 0.8472 13.2642 0.8472 8.5271975 2.69248773 5.2991 7.11911553 6.7535885 8.4756 9.4716466 7.35969313 13.2642"></polygon>
                                        <path d="M6.54833221,2.24943037 C6.54833221,2.24943037 7.79651191,0.153644747 6.14298586,0.153644747 C4.4894598,0.153644747 2.56913532,-0.396234449 3.32303586,0.584528003 C4.0769364,1.56529045 1.16306089,2.88395974 2.24304838,4.15648775 C3.32303586,5.42901575 4.48821162,6.8476 4.48821162,6.8476 L5.96668047,4.9221555 L6.54833221,2.24943037 Z" id="bg" fill="#094589"></path>
                                        <path d="M5.91254892,5.53253421 C5.91254892,5.53253421 6.2179365,4.36048609 5.6873469,3.030944 C5.1567573,1.70140192 4.17064544,1.40375053 3.07420735,1.8356991 C1.97776925,2.26764767 2.25702803,4.32092946 3.22007683,5.19898884 C4.18312564,6.07704823 4.66654483,6.6074 4.66654483,6.6074 L5.91254892,5.53253421 Z" id="bg" fill="#86BDFD" transform="translate(4.183350, 4.129250) rotate(14.000000) translate(-4.183350, -4.129250) "></path>
                                        <rect id="bg" fill="#86BDFC" x="0" y="8" width="6" height="4"></rect>
                                    </g>
                                    <g id="character" transform="translate(95.000000, 16.666700) scale(-1, 1) translate(-95.000000, -16.666700) translate(90.000000, 9.666700)">
                                        <polygon id="bg" fill="#584CE6" points="2.92015109 12.264203 3.69248809 11.1082743 2.20950429 13.2367 0.7114 12.264203 3.69248809 5.7536 8.11911562 5.7536 9.4756 8.47165454 8.3596932 12.264203"></polygon>
                                        <path d="M8.54833221,2.24943037 C8.54833221,2.24943037 9.79651191,0.153644747 8.14298586,0.153644747 C6.4894598,0.153644747 4.56913532,-0.396234449 5.32303586,0.584528003 C6.0769364,1.56529045 3.16306089,2.88395974 4.24304838,4.15648775 C5.32303586,5.42901575 6.48821162,6.8476 6.48821162,6.8476 L7.96668047,4.9221555 L8.54833221,2.24943037 Z" id="bg" fill="#8256F5"></path>
                                        <path d="M7.91254892,5.53253421 C7.91254892,5.53253421 8.2179365,4.36048609 7.6873469,3.030944 C7.1567573,1.70140192 6.17064544,1.40375053 5.07420735,1.8356991 C3.97776925,2.26764767 4.25702803,4.32092946 5.22007683,5.19898884 C6.18312564,6.07704823 6.66654483,6.6074 6.66654483,6.6074 L7.91254892,5.53253421 Z" id="bg" fill="#C4A6FF" transform="translate(6.183350, 4.129250) rotate(14.000000) translate(-6.183350, -4.129250) "></path>
                                    </g>
                                    <g id="character" transform="translate(66.000000, 9.666700)">
                                        <polygon id="bg" fill="#584CE6" points="2.92015109 12.264203 3.69248809 11.1082743 2.20950429 13.2367 0.7114 12.264203 3.69248809 5.7536 8.11911562 5.7536 9.4756 8.47165454 8.3596932 12.264203"></polygon>
                                        <path d="M8.54833221,2.24943037 C8.54833221,2.24943037 9.79651191,0.153644747 8.14298586,0.153644747 C6.4894598,0.153644747 4.56913532,-0.396234449 5.32303586,0.584528003 C6.0769364,1.56529045 3.16306089,2.88395974 4.24304838,4.15648775 C5.32303586,5.42901575 6.48821162,6.8476 6.48821162,6.8476 L7.96668047,4.9221555 L8.54833221,2.24943037 Z" id="bg" fill="#8256F5"></path>
                                        <path d="M7.91254892,5.53253421 C7.91254892,5.53253421 8.2179365,4.36048609 7.6873469,3.030944 C7.1567573,1.70140192 6.17064544,1.40375053 5.07420735,1.8356991 C3.97776925,2.26764767 4.25702803,4.32092946 5.22007683,5.19898884 C6.18312564,6.07704823 6.66654483,6.6074 6.66654483,6.6074 L7.91254892,5.53253421 Z" id="bg" fill="#C4A6FF" transform="translate(6.183350, 4.129250) rotate(14.000000) translate(-6.183350, -4.129250) "></path>
                                    </g>
                                    <g id="character" transform="translate(23.000000, 15.666700) scale(-1, 1) translate(-23.000000, -15.666700) translate(17.000000, 8.666700)">
                                        <polygon id="bg" fill="#584CE6" points="4.92006465 13.2642 4.92006465 9.4716466 2.9438 9.4716466 5.69240005 5.2991 10.1190184 6.7535885 11.4755 9.4716466 10.3595955 13.2642"></polygon>
                                        <rect id="bg" fill="#C4A6FF" x="0" y="7" width="9" height="6"></rect>
                                        <path d="M8.54833221,2.24943037 C8.54833221,2.24943037 9.79651191,0.153644747 8.14298586,0.153644747 C6.4894598,0.153644747 4.56913532,-0.396234449 5.32303586,0.584528003 C6.0769364,1.56529045 3.16306089,2.88395974 4.24304838,4.15648775 C5.32303586,5.42901575 6.48821162,6.8476 6.48821162,6.8476 L7.96668047,4.9221555 L8.54833221,2.24943037 Z" id="bg" fill="#8256F5"></path>
                                        <path d="M8.91254892,5.53253421 C8.91254892,5.53253421 9.2179365,4.36048609 8.6873469,3.030944 C8.1567573,1.70140192 7.17064544,1.40375053 6.07420735,1.8356991 C4.97776925,2.26764767 5.25702803,4.32092946 6.22007683,5.19898884 C7.18312564,6.07704823 7.66654483,6.6074 7.66654483,6.6074 L8.91254892,5.53253421 Z" id="bg" fill="#C4A6FF" transform="translate(7.183350, 4.129250) rotate(14.000000) translate(-7.183350, -4.129250) "></path>
                                    </g>
                                    <g id="character" transform="translate(53.000000, 16.166700) scale(-1, 1) translate(-53.000000, -16.166700) translate(48.000000, 8.666700)">
                                        <polygon id="bg" fill="#584CE6" points="2.92006548 13.2641548 0.6689 14.0428 3.69240078 6.2991 8.11901859 6.75358095 9.4755 9.47162334 8.35959565 13.2641548"></polygon>
                                        <path d="M7.54833271,2.24943037 C7.54833271,2.24943037 8.79651105,0.153644747 7.14298679,0.153644747 C5.48946253,0.153644747 3.56914015,-0.396234449 4.32303987,0.584528003 C5.07693959,1.56529045 3.16306616,2.88395974 4.24305247,4.15648775 C5.32303878,5.42901575 5.48821435,6.8476 5.48821435,6.8476 L6.9666816,4.9221555 L7.54833271,2.24943037 Z" id="bg" fill="#8256F5"></path>
                                        <path d="M6.91254892,5.53253421 C6.91254892,5.53253421 7.2179365,4.36048609 6.6873469,3.030944 C6.1567573,1.70140192 5.17064544,1.40375053 4.07420735,1.8356991 C2.97776925,2.26764767 3.25702803,4.32092946 4.22007683,5.19898884 C5.18312564,6.07704823 5.66654483,6.6074 5.66654483,6.6074 L6.91254892,5.53253421 Z" id="bg" fill="#C4A6FF" transform="translate(5.183350, 4.129250) rotate(14.000000) translate(-5.183350, -4.129250) "></path>
                                    </g>
                                    <g id="character" transform="translate(38.500000, 15.666700) scale(-1, 1) translate(-38.500000, -15.666700) translate(34.000000, 8.666700)">
                                        <polygon id="bg" fill="#584CE6" points="1.92015068 13.2642 1.92015068 9.4716466 0.8472 13.2642 0.8472 8.5271975 2.69248773 5.2991 7.11911553 6.7535885 8.4756 9.4716466 7.35969313 13.2642"></polygon>
                                        <path d="M6.54833271,2.24945535 C6.54833271,2.24945535 7.79651105,1.15367567 6.14298679,1.15367567 C4.48946253,1.15367567 2.56914015,-0.396195106 3.32303987,0.584562019 C4.07693959,1.56531914 2.16306616,2.88398127 3.24305247,4.15650236 C4.32303878,5.42902346 4.48821435,6.8476 4.48821435,6.8476 L5.9666816,4.92216596 L6.54833271,2.24945535 Z" id="bg" fill="#8256F5"></path>
                                        <path d="M5.91254892,5.53253421 C5.91254892,5.53253421 6.2179365,4.36048609 5.6873469,3.030944 C5.1567573,1.70140192 4.17064544,1.40375053 3.07420735,1.8356991 C1.97776925,2.26764767 2.25702803,4.32092946 3.22007683,5.19898884 C4.18312564,6.07704823 4.66654483,6.6074 4.66654483,6.6074 L5.91254892,5.53253421 Z" id="bg" fill="#C4A6FF" transform="translate(4.183350, 4.129250) rotate(14.000000) translate(-4.183350, -4.129250) "></path>
                                        <rect id="bg" fill="#C4A6FF" x="0" y="8" width="6" height="4"></rect>
                                    </g>
                                    <g id="character" transform="translate(29.000000, 16.666700) scale(-1, 1) translate(-29.000000, -16.666700) translate(24.000000, 9.666700)">
                                        <polygon id="bg" fill="#584CE6" points="2.92015109 12.264203 3.69248809 11.1082743 2.20950429 13.2367 0.7114 12.264203 3.69248809 5.7536 8.11911562 5.7536 9.4756 8.47165454 8.3596932 12.264203"></polygon>
                                        <path d="M8.54833271,2.24943037 C8.54833271,2.24943037 9.79651105,0.153644747 8.14298679,0.153644747 C6.48946253,0.153644747 4.56914015,-0.396234449 5.32303987,0.584528003 C6.07693959,1.56529045 4.16306616,2.88395974 5.24305247,4.15648775 C6.32303878,5.42901575 6.48821435,6.8476 6.48821435,6.8476 L7.9666816,4.9221555 L8.54833271,2.24943037 Z" id="bg" fill="#8256F5"></path>
                                        <path d="M7.91254892,5.53253421 C7.91254892,5.53253421 8.2179365,4.36048609 7.6873469,3.030944 C7.1567573,1.70140192 6.17064544,1.40375053 5.07420735,1.8356991 C3.97776925,2.26764767 4.25702803,4.32092946 5.22007683,5.19898884 C6.18312564,6.07704823 6.66654483,6.6074 6.66654483,6.6074 L7.91254892,5.53253421 Z" id="bg" fill="#C4A6FF" transform="translate(6.183350, 4.129250) rotate(14.000000) translate(-6.183350, -4.129250) "></path>
                                    </g>
                                    <g id="character" transform="translate(40.000000, 9.666700)">
                                        <polygon id="bg" fill="#584CE6" points="2.92015109 12.264203 3.69248809 11.1082743 2.20950429 13.2367 0.7114 12.264203 3.69248809 5.7536 8.11911562 5.7536 9.4756 8.47165454 8.3596932 12.264203"></polygon>
                                        <path d="M8.54833431,3.24940838 C8.54833431,3.24940838 9.79650822,1.15361273 8.14298984,1.15361273 C7.56514566,1.15361273 6.72218286,0.108128953 5.90214389,0.0908147429 C4.37561682,0.0585838231 2.92852755,1.12395692 3.41896515,1.76198183 C4.17286219,2.74274897 4.16308336,3.88394078 5.24306583,5.15647488 C6.3230483,6.42900897 6.48822328,7.8476 6.48822328,7.8476 L7.96668527,5.92214629 L8.54833431,3.24940838 Z" id="bg" fill="#8256F5"></path>
                                        <path d="M7.91254892,5.53253421 C7.91254892,5.53253421 8.2179365,4.36048609 7.6873469,3.030944 C7.1567573,1.70140192 6.17064544,1.40375053 5.07420735,1.8356991 C3.97776925,2.26764767 4.25702803,4.32092946 5.22007683,5.19898884 C6.18312564,6.07704823 6.66654483,6.6074 6.66654483,6.6074 L7.91254892,5.53253421 Z" id="bg" fill="#C4A6FF" transform="translate(6.183350, 4.129250) rotate(14.000000) translate(-6.183350, -4.129250) "></path>
                                    </g>
                                </g>
                                <g id="characters" transform="translate(1.000000, 1.000000)">
                                    <g id="character" transform="translate(81.000000, 12.666700) scale(-1, 1) translate(-81.000000, -12.666700) translate(76.000000, 3.666700)">
                                        <polygon id="bg" fill="#584CE6" points="2.92015109 17.2642 2.92015109 13.4716673 0.7114 7.63299307 1.56586521 1.42211311 2.92015109 0.5243 2.92015109 2.61379 2.92015109 5.84048642 3.69248809 9.29914345 8.11911562 10.753624 9.4756 13.4716673 8.3596932 17.2642"></polygon>
                                        <path d="M6.54833221,6.24943037 C6.54833221,6.24943037 7.79651191,4.15364475 6.14298586,4.15364475 C4.4894598,4.15364475 2.56913532,3.60376555 3.32303586,4.584528 C4.0769364,5.56529045 1.16306089,6.88395974 2.24304838,8.15648775 C3.32303586,9.42901575 4.48821162,10.8476 4.48821162,10.8476 L5.96668047,8.9221555 L6.54833221,6.24943037 Z" id="bg" fill="#8256F5"></path>
                                        <path d="M6.91254892,9.53253421 C6.91254892,9.53253421 7.2179365,8.36048609 6.6873469,7.030944 C6.1567573,5.70140192 5.17064544,5.40375053 4.07420735,5.8356991 C2.97776925,6.26764767 3.25702803,8.32092946 4.22007683,9.19898884 C5.18312564,10.0770482 5.66654483,10.6074 5.66654483,10.6074 L6.91254892,9.53253421 Z" id="bg" fill="#C4A6FF" transform="translate(5.183350, 8.129250) rotate(14.000000) translate(-5.183350, -8.129250) "></path>
                                    </g>
                                    <g id="character" transform="translate(40.500000, 11.166700) scale(-1, 1) translate(-40.500000, -11.166700) translate(35.000000, 0.666700)">
                                        <polygon id="bg" fill="#584CE6" points="3.92015109 20.2642 3.92015109 16.4716673 1.7114 10.6329931 2.56586521 4.42211311 3.92015109 3.5243 3.92015109 5.61379 3.92015109 8.84048642 4.69248809 12.2991434 9.11911562 13.753624 10.4756 16.4716673 9.3596932 20.2642"></polygon>
                                        <rect id="bg" fill="#C4A6FF" x="0" y="0" width="6" height="6"></rect>
                                        <path d="M8.54833221,9.24943037 C8.54833221,9.24943037 9.79651191,7.15364475 8.14298586,7.15364475 C6.4894598,7.15364475 4.56913532,6.60376555 5.32303586,7.584528 C6.0769364,8.56529045 3.16306089,9.88395974 4.24304838,11.1564877 C5.32303586,12.4290158 6.48821162,13.8476 6.48821162,13.8476 L7.96668047,11.9221555 L8.54833221,9.24943037 Z" id="bg" fill="#8256F5"></path>
                                        <path d="M7.91254892,12.5325342 C7.91254892,12.5325342 8.2179365,11.3604861 7.6873469,10.030944 C7.1567573,8.70140192 6.17064544,8.40375053 5.07420735,8.8356991 C3.97776925,9.26764767 4.25702803,11.3209295 5.22007683,12.1989888 C6.18312564,13.0770482 6.66654483,13.6074 6.66654483,13.6074 L7.91254892,12.5325342 Z" id="bg" fill="#C4A6FF" transform="translate(6.183350, 11.129250) rotate(14.000000) translate(-6.183350, -11.129250) "></path>
                                    </g>
                                    <g id="character" transform="translate(60.500000, 14.666700) scale(-1, 1) translate(-60.500000, -14.666700) translate(56.000000, 7.666700)">
                                        <polygon id="bg" fill="#584CE6" points="1.92015068 13.2642 1.92015068 9.4716466 0.8472 13.2642 0.8472 8.5271975 2.69248773 5.2991 7.11911553 6.7535885 8.4756 9.4716466 7.35969313 13.2642"></polygon>
                                        <path d="M6.54833271,2.24943037 C6.54833271,2.24943037 7.79651105,0.153644747 6.14298679,0.153644747 C4.48946253,0.153644747 2.56914015,-0.396234449 3.32303987,0.584528003 C4.07693959,1.56529045 2.16306616,2.88395974 3.24305247,4.15648775 C4.32303878,5.42901575 4.48821435,6.8476 4.48821435,6.8476 L5.9666816,4.9221555 L6.54833271,2.24943037 Z" id="bg" fill="#8256F5"></path>
                                        <path d="M5.91254892,5.53253421 C5.91254892,5.53253421 6.2179365,4.36048609 5.6873469,3.030944 C5.1567573,1.70140192 4.17064544,1.40375053 3.07420735,1.8356991 C1.97776925,2.26764767 2.25702803,4.32092946 3.22007683,5.19898884 C4.18312564,6.07704823 4.66654483,6.6074 4.66654483,6.6074 L5.91254892,5.53253421 Z" id="bg" fill="#C4A6FF" transform="translate(4.183350, 4.129250) rotate(14.000000) translate(-4.183350, -4.129250) "></path>
                                        <rect id="bg" fill="#C4A6FF" x="0" y="8" width="6" height="4"></rect>
                                    </g>
                                    <g id="character" transform="translate(71.000000, 15.666700) scale(-1, 1) translate(-71.000000, -15.666700) translate(66.000000, 8.666700)">
                                        <polygon id="bg" fill="#584CE6" points="2.92015109 12.264203 3.69248809 11.1082743 2.20950429 13.2367 0.7114 12.264203 3.69248809 5.7536 8.11911562 5.7536 9.4756 8.47165454 8.3596932 12.264203"></polygon>
                                        <path d="M8.54833271,2.24943037 C8.54833271,2.24943037 9.79651105,0.153644747 8.14298679,0.153644747 C6.48946253,0.153644747 4.56914015,-0.396234449 5.32303987,0.584528003 C6.07693959,1.56529045 4.16306616,2.88395974 5.24305247,4.15648775 C6.32303878,5.42901575 6.48821435,6.8476 6.48821435,6.8476 L7.9666816,4.9221555 L8.54833271,2.24943037 Z" id="bg" fill="#8256F5"></path>
                                        <path d="M7.91254892,5.53253421 C7.91254892,5.53253421 8.2179365,4.36048609 7.6873469,3.030944 C7.1567573,1.70140192 6.17064544,1.40375053 5.07420735,1.8356991 C3.97776925,2.26764767 4.25702803,4.32092946 5.22007683,5.19898884 C6.18312564,6.07704823 6.66654483,6.6074 6.66654483,6.6074 L7.91254892,5.53253421 Z" id="bg" fill="#C4A6FF" transform="translate(6.183350, 4.129250) rotate(14.000000) translate(-6.183350, -4.129250) "></path>
                                    </g>
                                    <g id="character" transform="translate(42.000000, 8.666700)">
                                        <polygon id="bg" fill="#584CE6" points="2.92015109 12.264203 3.69248809 11.1082743 2.20950429 13.2367 0.7114 12.264203 3.69248809 5.7536 8.11911562 5.7536 9.4756 8.47165454 8.3596932 12.264203"></polygon>
                                        <path d="M8.54833271,2.24943037 C8.54833271,2.24943037 9.79651105,0.153644747 8.14298679,0.153644747 C6.48946253,0.153644747 4.56914015,-0.396234449 5.32303987,0.584528003 C6.07693959,1.56529045 4.16306616,2.88395974 5.24305247,4.15648775 C6.32303878,5.42901575 6.48821435,6.8476 6.48821435,6.8476 L7.9666816,4.9221555 L8.54833271,2.24943037 Z" id="bg" fill="#8256F5"></path>
                                        <path d="M7.91254892,5.53253421 C7.91254892,5.53253421 8.2179365,4.36048609 7.6873469,3.030944 C7.1567573,1.70140192 6.17064544,1.40375053 5.07420735,1.8356991 C3.97776925,2.26764767 4.25702803,4.32092946 5.22007683,5.19898884 C6.18312564,6.07704823 6.66654483,6.6074 6.66654483,6.6074 L7.91254892,5.53253421 Z" id="bg" fill="#C4A6FF" transform="translate(6.183350, 4.129250) rotate(14.000000) translate(-6.183350, -4.129250) "></path>
                                    </g>
                                    <g id="character" transform="translate(29.000000, 15.166700) scale(-1, 1) translate(-29.000000, -15.166700) translate(24.000000, 7.666700)">
                                        <polygon id="bg" fill="#584CE6" points="2.92006548 13.2641548 0.6689 14.0428 3.69240078 6.2991 8.11901859 6.75358095 9.4755 9.47162334 8.35959565 13.2641548"></polygon>
                                        <path d="M7.54833271,2.24943037 C7.54833271,2.24943037 8.79651105,0.153644747 7.14298679,0.153644747 C5.48946253,0.153644747 3.56914015,-0.396234449 4.32303987,0.584528003 C5.07693959,1.56529045 3.16306616,2.88395974 4.24305247,4.15648775 C5.32303878,5.42901575 5.48821435,6.8476 5.48821435,6.8476 L6.9666816,4.9221555 L7.54833271,2.24943037 Z" id="bg" fill="#8256F5"></path>
                                        <path d="M6.91254892,5.53253421 C6.91254892,5.53253421 7.2179365,4.36048609 6.6873469,3.030944 C6.1567573,1.70140192 5.17064544,1.40375053 4.07420735,1.8356991 C2.97776925,2.26764767 3.25702803,4.32092946 4.22007683,5.19898884 C5.18312564,6.07704823 5.66654483,6.6074 5.66654483,6.6074 L6.91254892,5.53253421 Z" id="bg" fill="#C4A6FF" transform="translate(5.183350, 4.129250) rotate(14.000000) translate(-5.183350, -4.129250) "></path>
                                    </g>
                                    <g id="character" transform="translate(14.500000, 14.666700) scale(-1, 1) translate(-14.500000, -14.666700) translate(10.000000, 7.666700)">
                                        <polygon id="bg" fill="#584CE6" points="1.92015068 13.2642 1.92015068 9.4716466 0.8472 13.2642 0.8472 8.5271975 2.69248773 5.2991 7.11911553 6.7535885 8.4756 9.4716466 7.35969313 13.2642"></polygon>
                                        <path d="M6.54833271,2.24943037 C6.54833271,2.24943037 7.79651105,0.153644747 6.14298679,0.153644747 C4.48946253,0.153644747 2.56914015,-0.396234449 3.32303987,0.584528003 C4.07693959,1.56529045 2.16306616,2.88395974 3.24305247,4.15648775 C4.32303878,5.42901575 4.48821435,6.8476 4.48821435,6.8476 L5.9666816,4.9221555 L6.54833271,2.24943037 Z" id="bg" fill="#8256F5"></path>
                                        <path d="M5.91254892,5.53253421 C5.91254892,5.53253421 6.2179365,4.36048609 5.6873469,3.030944 C5.1567573,1.70140192 4.17064544,1.40375053 3.07420735,1.8356991 C1.97776925,2.26764767 2.25702803,4.32092946 3.22007683,5.19898884 C4.18312564,6.07704823 4.66654483,6.6074 4.66654483,6.6074 L5.91254892,5.53253421 Z" id="bg" fill="#C4A6FF" transform="translate(4.183350, 4.129250) rotate(14.000000) translate(-4.183350, -4.129250) "></path>
                                        <rect id="bg" fill="#C4A6FF" x="0" y="8" width="6" height="4"></rect>
                                    </g>
                                    <g id="character" transform="translate(5.000000, 15.666700) scale(-1, 1) translate(-5.000000, -15.666700) translate(0.000000, 8.666700)">
                                        <polygon id="bg" fill="#584CE6" points="2.92015109 12.264203 3.69248809 11.1082743 2.20950429 13.2367 0.7114 12.264203 3.69248809 5.7536 8.11911562 5.7536 9.4756 8.47165454 8.3596932 12.264203"></polygon>
                                        <path d="M8.54833271,2.24943037 C8.54833271,2.24943037 9.79651105,0.153644747 8.14298679,0.153644747 C6.48946253,0.153644747 4.56914015,-0.396234449 5.32303987,0.584528003 C6.07693959,1.56529045 4.16306616,2.88395974 5.24305247,4.15648775 C6.32303878,5.42901575 6.48821435,6.8476 6.48821435,6.8476 L7.9666816,4.9221555 L8.54833271,2.24943037 Z" id="bg" fill="#8256F5"></path>
                                        <path d="M7.91254892,5.53253421 C7.91254892,5.53253421 8.2179365,4.36048609 7.6873469,3.030944 C7.1567573,1.70140192 6.17064544,1.40375053 5.07420735,1.8356991 C3.97776925,2.26764767 4.25702803,4.32092946 5.22007683,5.19898884 C6.18312564,6.07704823 6.66654483,6.6074 6.66654483,6.6074 L7.91254892,5.53253421 Z" id="bg" fill="#C4A6FF" transform="translate(6.183350, 4.129250) rotate(14.000000) translate(-6.183350, -4.129250) "></path>
                                    </g>
                                    <g id="character" transform="translate(16.000000, 8.666700)">
                                        <polygon id="bg" fill="#584CE6" points="2.92015109 12.264203 3.69248809 11.1082743 2.20950429 13.2367 0.7114 12.264203 3.69248809 5.7536 8.11911562 5.7536 9.4756 8.47165454 8.3596932 12.264203"></polygon>
                                        <path d="M8.54833271,2.24943037 C8.54833271,2.24943037 9.79651105,0.153644747 8.14298679,0.153644747 C6.48946253,0.153644747 4.56914015,-0.396234449 5.32303987,0.584528003 C6.07693959,1.56529045 4.16306616,2.88395974 5.24305247,4.15648775 C6.32303878,5.42901575 6.48821435,6.8476 6.48821435,6.8476 L7.9666816,4.9221555 L8.54833271,2.24943037 Z" id="bg" fill="#8256F5"></path>
                                        <path d="M7.91254892,5.53253421 C7.91254892,5.53253421 8.2179365,4.36048609 7.6873469,3.030944 C7.1567573,1.70140192 6.17064544,1.40375053 5.07420735,1.8356991 C3.97776925,2.26764767 4.25702803,4.32092946 5.22007683,5.19898884 C6.18312564,6.07704823 6.66654483,6.6074 6.66654483,6.6074 L7.91254892,5.53253421 Z" id="bg" fill="#C4A6FF" transform="translate(6.183350, 4.129250) rotate(14.000000) translate(-6.183350, -4.129250) "></path>
                                    </g>
                                </g>
                                <path d="M217,32 L198,32 L198,32.5023012 C198,32.7771727 197.768066,33 197.5,33 C197.223858,33 197,32.7851562 197,32.5023012 L197,32 L195.995457,32 C195.445681,32 195,31.5443356 195,31.0046024 L195,22.9953976 C195,22.4456547 195.455263,22 195.995457,22 L219.004543,22 C219.554319,22 220,22.4556644 220,22.9953976 L220,31.0046024 C220,31.5543453 219.544737,32 219.004543,32 L218,32 L218,32.5023012 C218,32.7771727 217.768066,33 217.5,33 C217.223858,33 217,32.7851562 217,32.5023012 L217,32 Z M171,32 L169.995457,32 C169.445681,32 169,31.5443356 169,31.0046024 L169,22.9953976 C169,22.4456547 169.455263,22 169.995457,22 L193.004543,22 C193.554319,22 194,22.4556644 194,22.9953976 L194,31.0046024 C194,31.5543453 193.544737,32 193.004543,32 L192,32 L192,32.5023012 C192,32.7771727 191.768066,33 191.5,33 C191.223858,33 191,32.7851562 191,32.5023012 L191,32 L172,32 L172,32.5023012 C172,32.7771727 171.768066,33 171.5,33 C171.223858,33 171,32.7851562 171,32.5023012 L171,32 Z M165,32 L146,32 L146,32.5023012 C146,32.7771727 145.768066,33 145.5,33 C145.223858,33 145,32.7851562 145,32.5023012 L145,32 L143.995457,32 C143.445681,32 143,31.5443356 143,31.0046024 L143,22.9953976 C143,22.4456547 143.455263,22 143.995457,22 L167.004543,22 C167.554319,22 168,22.4556644 168,22.9953976 L168,31.0046024 C168,31.5543453 167.544737,32 167.004543,32 L166,32 L166,32.5023012 C166,32.7771727 165.768066,33 165.5,33 C165.223858,33 165,32.7851562 165,32.5023012 L165,32 Z M119,32 L117.995457,32 C117.445681,32 117,31.5443356 117,31.0046024 L117,22.9953976 C117,22.4456547 117.455263,22 117.995457,22 L141.004543,22 C141.554319,22 142,22.4556644 142,22.9953976 L142,31.0046024 C142,31.5543453 141.544737,32 141.004543,32 L140,32 L140,32.5023012 C140,32.7771727 139.768066,33 139.5,33 C139.223858,33 139,32.7851562 139,32.5023012 L139,32 L120,32 L120,32.5023012 C120,32.7771727 119.768066,33 119.5,33 C119.223858,33 119,32.7851562 119,32.5023012 L119,32 Z M113,32 L94,32 L94,32.5023012 C94,32.7771727 93.7680664,33 93.5,33 C93.2238576,33 93,32.7851562 93,32.5023012 L93,32 L91.995457,32 C91.4456813,32 91,31.5443356 91,31.0046024 L91,22.9953976 C91,22.4456547 91.4552629,22 91.995457,22 L115.004543,22 C115.554319,22 116,22.4556644 116,22.9953976 L116,31.0046024 C116,31.5543453 115.544737,32 115.004543,32 L114,32 L114,32.5023012 C114,32.7771727 113.768066,33 113.5,33 C113.223858,33 113,32.7851562 113,32.5023012 L113,32 Z M67,32 L65.995457,32 C65.4456813,32 65,31.5443356 65,31.0046024 L65,22.9953976 C65,22.4456547 65.4552629,22 65.995457,22 L89.004543,22 C89.5543187,22 90,22.4556644 90,22.9953976 L90,31.0046024 C90,31.5543453 89.5447371,32 89.004543,32 L88,32 L88,32.5023012 C88,32.7771727 87.7680664,33 87.5,33 C87.2238576,33 87,32.7851562 87,32.5023012 L87,32 L68,32 L68,32.5023012 C68,32.7771727 67.7680664,33 67.5,33 C67.2238576,33 67,32.7851562 67,32.5023012 L67,32 Z M61,32 L42,32 L42,32.5023012 C42,32.7771727 41.7680664,33 41.5,33 C41.2238576,33 41,32.7851562 41,32.5023012 L41,32 L39.995457,32 C39.4456813,32 39,31.5443356 39,31.0046024 L39,22.9953976 C39,22.4456547 39.4552629,22 39.995457,22 L63.004543,22 C63.5543187,22 64,22.4556644 64,22.9953976 L64,31.0046024 C64,31.5543453 63.5447371,32 63.004543,32 L62,32 L62,32.5023012 C62,32.7771727 61.7680664,33 61.5,33 C61.2238576,33 61,32.7851562 61,32.5023012 L61,32 Z M15,32 L13.995457,32 C13.4456813,32 13,31.5443356 13,31.0046024 L13,22.9953976 C13,22.4456547 13.4552629,22 13.995457,22 L37.004543,22 C37.5543187,22 38,22.4556644 38,22.9953976 L38,31.0046024 C38,31.5543453 37.5447371,32 37.004543,32 L36,32 L36,32.5023012 C36,32.7771727 35.7680664,33 35.5,33 C35.2238576,33 35,32.7851562 35,32.5023012 L35,32 L16,32 L16,32.5023012 C16,32.7771727 15.7680664,33 15.5,33 C15.2238576,33 15,32.7851562 15,32.5023012 L15,32 Z" id="Combined-Shape" fill="#D1D7FF"></path>
                                <path d="M204,32 L185,32 L185,32.5023012 C185,32.7771727 184.768066,33 184.5,33 C184.223858,33 184,32.7851562 184,32.5023012 L184,32 L182.995457,32 C182.445681,32 182,31.5443356 182,31.0046024 L182,22.9953976 C182,22.4456547 182.455263,22 182.995457,22 L206.004543,22 C206.554319,22 207,22.4556644 207,22.9953976 L207,31.0046024 C207,31.5543453 206.544737,32 206.004543,32 L205,32 L205,32.5023012 C205,32.7771727 204.768066,33 204.5,33 C204.223858,33 204,32.7851562 204,32.5023012 L204,32 Z M158,32 L156.995457,32 C156.445681,32 156,31.5443356 156,31.0046024 L156,22.9953976 C156,22.4456547 156.455263,22 156.995457,22 L180.004543,22 C180.554319,22 181,22.4556644 181,22.9953976 L181,31.0046024 C181,31.5543453 180.544737,32 180.004543,32 L179,32 L179,32.5023012 C179,32.7771727 178.768066,33 178.5,33 C178.223858,33 178,32.7851562 178,32.5023012 L178,32 L159,32 L159,32.5023012 C159,32.7771727 158.768066,33 158.5,33 C158.223858,33 158,32.7851562 158,32.5023012 L158,32 Z M152,32 L133,32 L133,32.5023012 C133,32.7771727 132.768066,33 132.5,33 C132.223858,33 132,32.7851562 132,32.5023012 L132,32 L130.995457,32 C130.445681,32 130,31.5443356 130,31.0046024 L130,22.9953976 C130,22.4456547 130.455263,22 130.995457,22 L154.004543,22 C154.554319,22 155,22.4556644 155,22.9953976 L155,31.0046024 C155,31.5543453 154.544737,32 154.004543,32 L153,32 L153,32.5023012 C153,32.7771727 152.768066,33 152.5,33 C152.223858,33 152,32.7851562 152,32.5023012 L152,32 Z M106,32 L104.995457,32 C104.445681,32 104,31.5443356 104,31.0046024 L104,22.9953976 C104,22.4456547 104.455263,22 104.995457,22 L128.004543,22 C128.554319,22 129,22.4556644 129,22.9953976 L129,31.0046024 C129,31.5543453 128.544737,32 128.004543,32 L127,32 L127,32.5023012 C127,32.7771727 126.768066,33 126.5,33 C126.223858,33 126,32.7851562 126,32.5023012 L126,32 L107,32 L107,32.5023012 C107,32.7771727 106.768066,33 106.5,33 C106.223858,33 106,32.7851562 106,32.5023012 L106,32 Z M100,32 L81,32 L81,32.5023012 C81,32.7771727 80.7680664,33 80.5,33 C80.2238576,33 80,32.7851562 80,32.5023012 L80,32 L78.995457,32 C78.4456813,32 78,31.5443356 78,31.0046024 L78,22.9953976 C78,22.4456547 78.4552629,22 78.995457,22 L102.004543,22 C102.554319,22 103,22.4556644 103,22.9953976 L103,31.0046024 C103,31.5543453 102.544737,32 102.004543,32 L101,32 L101,32.5023012 C101,32.7771727 100.768066,33 100.5,33 C100.223858,33 100,32.7851562 100,32.5023012 L100,32 Z M54,32 L52.995457,32 C52.4456813,32 52,31.5443356 52,31.0046024 L52,22.9953976 C52,22.4456547 52.4552629,22 52.995457,22 L76.004543,22 C76.5543187,22 77,22.4556644 77,22.9953976 L77,31.0046024 C77,31.5543453 76.5447371,32 76.004543,32 L75,32 L75,32.5023012 C75,32.7771727 74.7680664,33 74.5,33 C74.2238576,33 74,32.7851562 74,32.5023012 L74,32 L55,32 L55,32.5023012 C55,32.7771727 54.7680664,33 54.5,33 C54.2238576,33 54,32.7851562 54,32.5023012 L54,32 Z M48,32 L29,32 L29,32.5023012 C29,32.7771727 28.7680664,33 28.5,33 C28.2238576,33 28,32.7851562 28,32.5023012 L28,32 L26.995457,32 C26.4456813,32 26,31.5443356 26,31.0046024 L26,22.9953976 C26,22.4456547 26.4552629,22 26.995457,22 L50.004543,22 C50.5543187,22 51,22.4556644 51,22.9953976 L51,31.0046024 C51,31.5543453 50.5447371,32 50.004543,32 L49,32 L49,32.5023012 C49,32.7771727 48.7680664,33 48.5,33 C48.2238576,33 48,32.7851562 48,32.5023012 L48,32 Z M2,32 L0.995457033,32 C0.445681294,32 0,31.5443356 0,31.0046024 L0,22.9953976 C0,22.4456547 0.455262884,22 0.995457033,22 L24.004543,22 C24.5543187,22 25,22.4556644 25,22.9953976 L25,31.0046024 C25,31.5543453 24.5447371,32 24.004543,32 L23,32 L23,32.5023012 C23,32.7771727 22.7680664,33 22.5,33 C22.2238576,33 22,32.7851562 22,32.5023012 L22,32 L3,32 L3,32.5023012 C3,32.7771727 2.76806641,33 2.5,33 C2.22385763,33 2,32.7851562 2,32.5023012 L2,32 Z" id="Combined-Shape" fill="#BAC2F7"></path>
                            </g>
                            <g id="head" transform="translate(94.000000, 52.000000)">
                                <path d="M9.00000234,0 L0,49.7304697 L9.00000234,50.0136728 L9.00000234,67.4658216 C9.00000234,79.0119787 12.4893883,87.8394068 20.5520881,89.4892041 C29.2384406,91.3865776 32.0000083,91.6391646 32.0000083,91.6391646 L32.0000083,133.06379 L87.0534933,110.985451 C88.0814601,110.573202 88.9147919,109.343642 88.9147919,108.238718 L88.9147919,97.7891252 L87.8646023,71.8518717 C87.8646023,71.8518717 87.3907117,55.7945042 89.9649815,52.1395591 C92.8640839,49.0656113 95.9844,51.6318369 95.9844,41.7285164 C95.9844,31.8251959 92.3888103,30.1787115 86.2529522,30.1787115 C80.117094,30.1787115 75.5322462,40.0175789 75.5322462,40.0175789 L75.1203538,23.9981354 C74.9215752,16.2671788 68.559052,9.05697391 60.9147561,7.89452775 L9.00000234,0 Z" id="bg" fill="#F5D8BA"></path>
                                <path d="M14.747965,69 C11.0202862,69 7.88808559,66.4504544 7,63 L14.747965,63 L14.747965,57 L14.747965,61 L18.747965,61 L14.747965,61 L14.747965,69 Z" id="smile" fill="#F4C89B" transform="translate(12.873983, 63.000000) scale(-1, 1) translate(-12.873983, -63.000000) "></path>
                                <g id="eye" transform="translate(18.000000, 26.000000)">
                                    <mask id="mask-5" fill="white">
                                        <use xlink:href="#path-4"></use>
                                    </mask>
                                    <use fill="#F4C89B" xlink:href="#path-4"></use>
                                </g>
                                <polygon id="Rectangle-6" fill="#F4C89B" transform="translate(22.500000, 22.500000) rotate(-345.000000) translate(-22.500000, -22.500000) " points="16 21 29 22 29 24 16 24"></polygon>
                                <polygon id="shadow" fill="#F4BA7E" opacity="0.5" points="32 91 54 91 32 115"></polygon>
                            </g>
                        </g>
                        <g id="person" transform="translate(238.500000, 286.000000) scale(-1, 1) translate(-238.500000, -286.000000) translate(0.000000, 230.000000)">
                            <polygon id="bg" fill="#584CE6" opacity="0.5798" points="315.982 54.4286 365.621631 54.4286 375.8919 111 326.252269 111"></polygon>
                            <rect id="bg" fill="#919CF1" x="179" y="111" width="298" height="1" rx="0.5"></rect>
                            <rect id="bg" fill="#B5BCF4" x="0" y="77" width="228" height="1" rx="0.5"></rect>
                            <polygon id="bg" fill="#997871" points="364.112181 98.3504 384.880068 101.081995 397.1596 111 360.1331 111"></polygon>
                            <path d="M410.467108,87.2201573 L418.577687,89.8761222 L423.579099,85.9520241 L428.547916,84.7835 L429.435532,86.2818224 L439.8713,85.9302608 L439.041353,91.8256155 L434.041612,92.5412946 L424.531073,99.5239795 L415.053129,102.8228 C415.053129,102.8228 408.248902,102.8002 406.16108,101.592334 C404.073257,100.384469 401.4873,97.8136039 401.4873,97.8136039 C401.4873,97.8136039 402.117491,87.24778 405.018544,86.7648012 C407.919598,86.2818224 410.467108,87.2201573 410.467108,87.2201573 Z" id="bg" fill="#997871"></path>
                            <g id="mac" transform="translate(378.000000, 77.000000)">
                                <path d="M44.5033676,34 L71.2203563,34 C72.8656654,34 74.8452815,32.8181968 75.6247524,31.3603687 L90.9811432,2.63963128 C91.7561554,1.19014205 91.0524707,0 89.3994607,0 L55.5646437,0 C53.9193346,0 51.9397185,1.18180318 51.1602476,2.63963128 L35.9965386,31 L1.60996472,31 C0.780018324,31 0.1121,31.6715729 0.1121,32.5 C0.1121,33.3342028 0.782716879,34 1.60996472,34 L44.5033676,34 Z" id="bg" fill="#E5EAF9"></path>
                                <mask id="mask-7" fill="white">
                                    <use xlink:href="#path-6"></use>
                                </mask>
                                <use id="Combined-Shape" fill="#FFFFFF" xlink:href="#path-6"></use>
                            </g>
                            <circle id="bg" fill="#253238" cx="388.5" cy="10.5" r="8.5"></circle>
                            <circle id="bg" fill="#253238" cx="390" cy="9" r="9"></circle>
                            <path d="M379.5,31.9999966 C386.955844,31.9999966 391,22.9558417 391,15.4999985 C391,8.04415519 384.955844,2 377.5,2 C370.044156,2 364,8.04415519 364,15.4999985 C364,18.9721878 373.464635,36.5302 373.464635,36.5302 C373.464635,36.5302 375.516346,31.9999966 379.5,31.9999966 Z" id="bg" fill="#253238"></path>
                            <rect id="Rectangle-2" fill="#D4F3EF" x="376" y="52" width="17" height="15"></rect>
                            <g id="head" transform="translate(367.000000, 14.000000)">
                                <mask id="mask-9" fill="white">
                                    <use xlink:href="#path-8"></use>
                                </mask>
                                <use id="bg" fill="#997871" xlink:href="#path-8"></use>
                                <g id="Group-4" mask="url(#mask-9)">
                                    <g transform="translate(21.000000, 9.000000)">
                                        <path d="M6.6666,9.69274363 C6.66666663,9.68405363 6.6667,9.67535571 6.6667,9.66665 C6.6667,9.65794429 6.66666663,9.64924637 6.6666,9.64055636 L6.6666,9.6666 L3.3333,9.6666 L3.3333,7.99995 L3.3333,9.6666 L3.40569349e-10,9.6666 C0,11.5075917 1.49236461,12.999973 3.3333,13 L3.3333,9.6667 L6.6666,9.6667 L6.6666,9.69274364 Z" id="smile" stroke="none" fill="#7F605A" fill-rule="evenodd"></path>
                                        <mask id="mask-11" fill="white">
                                            <use xlink:href="#path-10"></use>
                                        </mask>
                                        <use id="eye" stroke="none" fill="#7F605A" fill-rule="evenodd" xlink:href="#path-10"></use>
                                    </g>
                                </g>
                                <polygon id="shadow" fill="#462C26" opacity="0.3" mask="url(#mask-9)" transform="translate(21.000000, 37.000000) scale(-1, 1) translate(-21.000000, -37.000000) " points="10 25 32 25 10 49"></polygon>
                            </g>
                            <path d="M340.9054,111.293504 L344.659799,89.8476432 C344.659799,89.8476432 340.358789,70.3041257 347.611833,59.98326 C354.864878,49.6623944 363.642416,43.2706563 363.642416,43.2706563 L368.282372,39.6451 L384.789746,58.6372785 L386.200571,42.3113934 C386.200571,42.3113934 404.230511,54.4635919 405.514163,63.1824773 C406.797815,71.9013626 411.679,87.9994298 411.679,87.9994298 C411.679,87.9994298 408.442795,85.5485381 405.012685,90.3917278 C401.582575,95.2349174 401.582575,98.1997598 401.582575,98.1997598 L394.488332,81.3498794 L384.903414,101.655115 L364.127178,99.9106965 L363.13258,111.6925" id="bg" fill="#584CE7"></path>
                        </g>
                        <g id="person" transform="translate(222.000000, 88.000000)">
                            <polygon id="bg" fill="#003979" points="31 244 34 263 19 270 42 270 41 240 32 243"></polygon>
                            <polygon id="bg" fill="#003979" points="78 252 84 273 82 280 102 293 92 273 88 241"></polygon>
                            <path d="M38,102 L24,175 L29,250 L43,250 C43,250 46.176814,207.342811 46,194 C46.176814,180.429359 43,174 43,174 L52,156 L77,261 L93,261 C93,261 89.8098415,222.19334 84,205 C78.5938282,187.943199 76,186 76,186 C76,186 84.1150959,158.568029 80,138 C76.295246,117.569471 68,97 68,97 C68,97 61.4862385,103.066557 50,103 C38.0767306,103.066557 38,102 38,102 Z" id="bg" fill="#03254C"></path>
                            <path d="M14,46 L12,44 L3,43 L0,46 L1,50 L6,52 C6,52 7.62758906,55.841747 11,58 C13.8670257,60.426852 14,62 14,62 C14,62 13.518227,74.9553101 17,82 C21.0095278,89.7269241 23.7439934,94 27,94 C31.096106,94 39,83 39,83 L39,61 L30,63 L28,71 L20,56 L18,48 L16,46 L14,46 Z" id="bg" fill="#7C5249"></path>
                            <path d="M39.0000006,11.9999967 C39.0000006,11.9999967 35,11.4836437 35,5.99999616 C35,0.384908139 40.481442,-1.19215401 45.0000015,0.999995743 C49.8977467,2.92653683 52.0000026,5.99999616 52.0000026,5.99999616 C52.0000026,5.99999616 61.294564,5.26289448 62.0000041,9.99999649 C63.2632393,13.8784725 61.000004,21.9999975 61.000004,21.9999975 L58.0000035,26.9999979 C58.0000035,26.9999979 61.3656532,32.0551194 68.000005,31.9999983 C74.6977475,32.0551194 78.408294,35.6189564 78.0000066,41.9999992 C77.5201511,48.4892432 76.0000063,52 76.0000063,52 L53.0000028,38.9999989 L39.0000006,11.9999967 Z" id="bg" fill="#243138"></path>
                            <path d="M45.9999908,38.9999985 C45.9999908,38.9999985 36.5305204,43.8185496 32.9999971,53.9999913 C29.7322572,63.6032838 27,69.9999835 27,69.9999835 L34.9999961,78.9999792 C34.9999961,78.9999792 36.8450249,88.5007216 36.9999951,92.9999724 C36.8450249,97.8524178 37.9999947,102.999968 37.9999947,102.999968 C37.9999947,102.999968 43.6449433,105.254875 51.9999878,103.999967 C60.0504914,102.045732 67.9999801,97.99997 67.9999801,97.99997 C67.9999801,97.99997 70.3265122,74.2721905 69.9999791,73.9999816 C70.3265122,74.2721905 71.9999781,73.9999816 71.9999781,73.9999816 C71.9999781,73.9999816 72.7734413,74.5388377 74.9999767,74.9999811 C76.9249008,74.5388377 82.6664695,70.301457 84.9999718,66.999985 C88.0693258,63.1273938 87.9999703,59.9999884 87.9999703,59.9999884 C87.9999703,59.9999884 82.9530404,54.704223 75.9999762,46.9999947 C68.3683078,39.1983465 56.9999854,36 56.9999854,36 L56.9999854,38.9999985 L47.9999898,42.9999966 L45.9999908,38.9999985 Z" id="bg" fill="#FFDF4B"></path>
                            <path d="M67,94 L64,90 L61,90 L57,87 L50,88 L50,95 L54,98 L62,104 L67,104 L72,101 C72,101 80.2852124,95.2156488 86,92 C90.7887253,88.4366007 95,80 95,80 L87,63 C87,63 85.8229341,65.8149315 82,69 C77.8160756,72.0026299 76,74 76,74 L81,79 C81,79 76.0090753,81.0101201 74.4111328,85.1767578 C72.3347695,89.208903 67,94 67,94 Z" id="bg" fill="#7C5249"></path>
                            <g id="head" transform="translate(36.000000, 9.000000)">
                                <mask id="mask-13" fill="white">
                                    <use xlink:href="#path-12"></use>
                                </mask>
                                <use id="bg" fill="#7C5249" xlink:href="#path-12"></use>
                                <g id="Group-3" mask="url(#mask-13)">
                                    <g transform="translate(0.000000, 9.000000)">
                                        <path d="M6.9999,9.69274363 C6.99996663,9.68405363 7,9.67535571 7,9.66665 C7,9.65794429 6.99996663,9.64924637 6.9999,9.64055637 L6.9999,9.6666 L3.6666,9.6666 L3.6666,7.99995 L3.6666,9.6666 L0.3333,9.6666 C0.3333,11.5075917 1.82566461,12.999973 3.6666,13 L3.6666,9.6667 L6.9999,9.6667 L6.9999,9.69274364 Z" id="smile" stroke="none" fill="#58352E" fill-rule="evenodd" transform="translate(3.666650, 9.666650) scale(-1, 1) translate(-3.666650, -9.666650) "></path>
                                        <mask id="mask-15" fill="white">
                                            <use xlink:href="#path-14"></use>
                                        </mask>
                                        <use id="eye" stroke="none" fill="#4A2922" fill-rule="evenodd" xlink:href="#path-14"></use>
                                    </g>
                                </g>
                                <polygon id="shadow" fill="#462C26" opacity="0.4033" mask="url(#mask-13)" points="-5 28 17 28 -5 52"></polygon>
                            </g>
                        </g>
                        <g id="person" transform="translate(118.000000, 81.000000)">
                            <polygon id="bg" fill="#003979" points="77 258 76 284 96 287 85 277 83 265"></polygon>
                            <polygon id="bg" fill="#003979" points="10.3852448 282.707031 0.9951 292.4375 18.000974 288.414062 21 274 14.2812442 274.708008"></polygon>
                            <path d="M40.0000087,127 C40.0000087,127 30.0000057,159.31543 30.0000057,178 C30.0000057,196.68457 27.5449269,199 27.5449269,199 C27.5449269,199 18.8134001,226.403198 16.0000015,238 C12.8346207,250.037593 11,277 11,277 L21.000003,277 L46.0000105,210 L61.0000151,161 L67.0000169,187 C67.0000169,187 65.053892,215.169279 67.0000169,225 C68.7380582,235.607313 75.0000193,272 75.0000193,272 L86.0000226,272 C86.0000226,272 86.3446718,212.094574 86.0000226,200 C86.3446718,187.403615 80.0000208,121 80.0000208,121 L62.0000154,126 L40.0000087,127 Z" id="bg" fill="#03254C"></path>
                            <path d="M58.6916593,38.4429 C58.6916593,38.4429 53.1145734,34.8823389 53.1145734,33.4060087 C53.1145734,31.9296785 52.8735702,27.4100692 52.8735702,27.4100692 C52.8735702,27.4100692 49.8185135,19.9306674 50.976241,15.2537339 C52.1339686,10.5768004 54.6406499,9.83716695 54.6406499,9.83716695 C54.6406499,9.83716695 54.9260374,6.66718941 57.1021172,5.90322314 C59.278197,5.13925687 63.3005847,6.46203866 63.3005847,6.46203866 C63.3005847,6.46203866 63.2960219,0.908704521 66.2776577,0.908704521 C69.2592935,0.908704521 71.6087629,2.62332843 71.6087629,2.62332843 C71.6087629,2.62332843 70.4132878,9.49407172e-16 75.3893178,0 C80.3653478,0 80.4279837,8.26686177 80.4279837,8.26686177 L82.4286,11.1582706 L81.8569954,13.1716007 L79.9580069,16.9612258 L66.9342979,32.5585558 L58.6916593,38.4429 Z" id="bg" fill="#F1C733"></path>
                            <polygon id="bg" fill="#F8D7B4" points="82.0890111 81.031475 86.8702213 92.5502543 92.7143 102.286967 77.4614584 105.9315 74.7143 80.3029"></polygon>
                            <g id="head" transform="translate(54.000000, 14.000000)">
                                <mask id="mask-18" fill="white">
                                    <use xlink:href="#path-17"></use>
                                </mask>
                                <use id="bg" fill="#F8D7B4" xlink:href="#path-17"></use>
                                <g id="Group-2" mask="url(#mask-18)">
                                    <g transform="translate(19.000000, 9.000000)">
                                        <path d="M6.9999,10.6405564 C6.99996663,10.6492464 7,10.6579443 7,10.66665 C7,12.5076084 5.50760837,14 3.66665,14 C1.82569163,14 0.3333,12.5076084 0.3333,10.66665 L3.6666,10.6666 L3.6666,8.99995 L3.6666,10.6666 L6.9999,10.6666 L6.9999,10.6405564 Z" id="smile" stroke="none" fill="#F4C89B" fill-rule="evenodd" transform="translate(3.666650, 10.666650) scale(-1, 1) translate(-3.666650, -10.666650) "></path>
                                        <mask id="mask-20" fill="white">
                                            <use xlink:href="#path-19"></use>
                                        </mask>
                                        <use id="eye" stroke="none" fill="#F4C89B" fill-rule="evenodd" xlink:href="#path-19"></use>
                                    </g>
                                </g>
                                <polygon id="shadow" fill="#F4BA7E" opacity="0.4033" mask="url(#mask-18)" transform="translate(22.000000, 40.000000) scale(-1, 1) translate(-22.000000, -40.000000) " points="11 28 33 28 11 52"></polygon>
                            </g>
                            <path d="M55,42 C55,42 43.3627725,42.0490215 38,50 C31.9809097,57.2706203 30,87 30,87 L28,88 L29,95 L34,96 L40,116 L38,124 L39,128 L62.2211287,127.858214 L80,122 L77,84 L82,82 L84,81 L83,72 L82,72 C82,72 81.2918331,62.558298 79,58 C76.5881463,52.8586831 74,49 74,49 C74,49 75.2723719,53.6430275 70,54 C64.5028821,53.6430275 60.1873074,49.5002932 58,47 C56,44.9786808 55,42 55,42 Z" id="bg" fill="#FFFFFF"></path>
                            <path d="M82.0022574,107 C80.8964261,107 80.299795,106.162228 80.6740627,105.116438 L94.0014364,67.8767011 C94.5582103,66.3209474 96.3524976,65.0573999 98.0110749,65.0544854 L125.998449,65.0053051 C127.656137,65.0023921 128.521111,66.2570064 127.931545,67.8046176 L114.068378,104.195413 C113.478309,105.744344 111.665453,107 109.998607,107 L82.0022574,107 Z" id="bg" fill="#FFFFFF"></path>
                            <path d="M108.380724,88.1288048 L108.617101,87.9355728 C108.939848,87.5742149 109.212969,87.1841185 109.436473,86.7652718 C109.659977,86.3464252 109.823036,85.9111598 109.931252,85.4348245 C110.071187,84.8188736 110.091961,84.2419415 109.993573,83.704011 C109.895186,83.1660806 109.692703,82.6979649 109.386118,82.29965 C109.079534,81.901335 108.680097,81.5851516 108.187794,81.3510903 C107.695492,81.1170289 107.124469,81 106.474708,81 C105.824948,81 105.198745,81.1170289 104.596081,81.3510903 C103.993417,81.5851516 103.447376,81.9054413 102.957943,82.3119689 C102.46851,82.7184965 102.050391,83.1907185 101.703572,83.728649 C101.356754,84.2665794 101.11338,84.8435115 100.967848,85.4841003 C100.827913,86.1000513 100.807139,86.6769833 100.905527,87.2149138 C101.003914,87.7528442 101.206397,88.2209599 101.512982,88.6192749 C101.819566,89.0175898 102.219003,89.3337732 102.711306,89.5678345 C103.203608,89.8018959 103.774631,89.9189248 104.424392,89.9189248 C104.511657,89.9189248 104.59846,89.916761 104.684799,89.9124333 L104.642823,89.9506 L108.776097,89.9506 L109.189982,88.1288048 L108.380724,88.1288048 Z M105.782922,82.7615651 C105.882179,82.7499613 105.981771,82.744 106.081324,82.744 C107.508032,82.744 108.386453,83.9683445 108.043333,85.47865 C107.700212,86.9889555 106.265483,88.2133 104.838776,88.2133 C103.412068,88.2133 102.533647,86.9889555 102.876767,85.47865 C102.979229,85.0276463 103.179032,84.6021424 103.446895,84.2271261 C103.621606,83.9707761 103.823039,83.7409769 104.051198,83.5377237 C104.327766,83.2913465 104.636321,83.0983539 104.976871,82.9587401 C105.235075,82.8528856 105.503757,82.7871609 105.782922,82.7615651 Z" id="Combined-Shape" fill="#E0DDFB"></path>
                            <path d="M32,95 C32,95 33.0051972,104.343768 34,108 C35.8613668,111.21142 40,116 40,116 C40,116 53.2467471,116.659075 62,115 C71.5785901,112.439702 81,109 81,109 L89,109 L93,105 L97,102 L96,99 L88,97 L99,91 L97,89 L84,94 L80,101 L51,100 L51,89 C51,89 45.8269151,91.7636329 42,93 C38.1209628,93.5020734 32,95 32,95 Z" id="bg" fill="#F8D7B4"></path>
                        </g>
                    </g>
                </g>
            </g>
        </g>
    </g>
</svg>