<?xml version="1.0" encoding="UTF-8"?>
<svg width="128px" height="293px" viewBox="0 0 128 293" version="1.1" xmlns="http://www.w3.org/2000/svg" xmlns:xlink="http://www.w3.org/1999/xlink">
    <!-- Generator: Sketch 42 (36781) - http://www.bohemiancoding.com/sketch -->
    <title>person</title>
    <desc>Created with Sketch.</desc>
    <defs>
        <linearGradient x1="50%" y1="-2.48949813e-15%" x2="50%" y2="100%" id="linearGradient-1">
            <stop stop-color="#00BEA2" offset="0%"></stop>
            <stop stop-color="#77DECD" offset="100%"></stop>
        </linearGradient>
        <path d="M0,29 L5,21 L8,15 C8,15 4.48400372,14.2528139 4.31005859,11.003418 C4.48400372,8.70475791 8,8 8,8 L9,14 L12,14 L12,5 C12,5 14.8908969,5.76821695 16,4 C17.1293352,2.31189967 18,0 18,0 L24,0 C24,0 25.0245925,1.06851449 26,3 C26.1824914,4.04005831 31,15 31,15 L26,15 C26,15 27.9297377,25.5340576 26,27 C24.0950292,28.6171496 19,28 19,28 L20,36 C20,36 22.3793922,42 16,42 C10.5250688,42 0,40 0,40 L0,29 Z" id="path-2"></path>
        <circle id="path-4" cx="2" cy="1" r="1"></circle>
    </defs>
    <g id="website" stroke="none" stroke-width="1" fill="none" fill-rule="evenodd">
        <g id="home" transform="translate(-251.000000, -4001.000000)">
            <g id="contact" transform="translate(0.000000, 4001.000000)">
                <g id="person" transform="translate(250.000000, 0.000000)">
                    <polygon id="bg" fill="#003979" points="77 258 76 284 96 287 85 277 83 265"></polygon>
                    <polygon id="bg" fill="#003979" points="10.3852448 282.707031 0.9951 292.4375 18.000974 288.414062 21 274 14.2812442 274.708008"></polygon>
                    <path d="M40.0000087,127 C40.0000087,127 30.0000057,159.31543 30.0000057,178 C30.0000057,196.68457 27.5449269,199 27.5449269,199 C27.5449269,199 18.8134001,226.403198 16.0000015,238 C12.8346207,250.037593 11,277 11,277 L21.000003,277 L46.0000105,210 L61.0000151,161 L67.0000169,187 C67.0000169,187 65.053892,215.169279 67.0000169,225 C68.7380582,235.607313 75.0000193,272 75.0000193,272 L86.0000226,272 C86.0000226,272 86.3446718,212.094574 86.0000226,200 C86.3446718,187.403615 80.0000208,121 80.0000208,121 L62.0000154,126 L40.0000087,127 Z" id="bg" fill="#03254C"></path>
                    <path d="M58.6916593,38.4429 C58.6916593,38.4429 53.1145734,34.8823389 53.1145734,33.4060087 C53.1145734,31.9296785 52.8735702,27.4100692 52.8735702,27.4100692 C52.8735702,27.4100692 49.8185135,19.9306674 50.976241,15.2537339 C52.1339686,10.5768004 54.6406499,9.83716695 54.6406499,9.83716695 C54.6406499,9.83716695 54.9260374,6.66718941 57.1021172,5.90322314 C59.278197,5.13925687 63.3005847,6.46203866 63.3005847,6.46203866 C63.3005847,6.46203866 63.2960219,0.908704521 66.2776577,0.908704521 C69.2592935,0.908704521 71.6087629,2.62332843 71.6087629,2.62332843 C71.6087629,2.62332843 70.4132878,9.49407172e-16 75.3893178,0 C80.3653478,0 80.4279837,8.26686177 80.4279837,8.26686177 L82.4286,11.1582706 L81.8569954,13.1716007 L79.9580069,16.9612258 L66.9342979,32.5585558 L58.6916593,38.4429 Z" id="bg" fill="#F1C733"></path>
                    <polygon id="bg" fill="#F8D7B4" points="82.0890111 81.031475 86.8702213 92.5502543 92.7143 102.286967 77.4614584 105.9315 74.7143 80.3029"></polygon>
                    <g id="head" transform="translate(54.000000, 14.000000)">
                        <mask id="mask-3" fill="white">
                            <use xlink:href="#path-2"></use>
                        </mask>
                        <use id="bg" fill="#F8D7B4" xlink:href="#path-2"></use>
                        <g id="Group-2" mask="url(#mask-3)">
                            <g transform="translate(19.000000, 9.000000)">
                                <path d="M6.9999,10.6405564 C6.99996663,10.6492464 7,10.6579443 7,10.66665 C7,12.5076084 5.50760837,14 3.66665,14 C1.82569163,14 0.3333,12.5076084 0.3333,10.66665 L3.6666,10.6666 L3.6666,8.99995 L3.6666,10.6666 L6.9999,10.6666 L6.9999,10.6405564 Z" id="smile" stroke="none" fill="#F4C89B" fill-rule="evenodd" transform="translate(3.666650, 10.666650) scale(-1, 1) translate(-3.666650, -10.666650) "></path>
                                <mask id="mask-5" fill="white">
                                    <use xlink:href="#path-4"></use>
                                </mask>
                                <use id="eye" stroke="none" fill="#F4C89B" fill-rule="evenodd" xlink:href="#path-4"></use>
                            </g>
                        </g>
                        <polygon id="shadow" fill="#F4BA7E" opacity="0.4033" mask="url(#mask-3)" transform="translate(22.000000, 40.000000) scale(-1, 1) translate(-22.000000, -40.000000) " points="11 28 33 28 11 52"></polygon>
                    </g>
                    <path d="M55,42 C55,42 43.3627725,42.0490215 38,50 C31.9809097,57.2706203 30,87 30,87 L28,88 L29,95 L34,96 L40,116 L38,124 L39,128 L62.2211287,127.858214 L80,122 L77,84 L82,82 L84,81 L83,72 L82,72 C82,72 81.2918331,62.558298 79,58 C76.5881463,52.8586831 74,49 74,49 C74,49 75.2723719,53.6430275 70,54 C64.5028821,53.6430275 60.1873074,49.5002932 58,47 C56,44.9786808 55,42 55,42 Z" id="bg" fill="#FFFFFF"></path>
                    <path d="M82.0022574,107 C80.8964261,107 80.299795,106.162228 80.6740627,105.116438 L94.0014364,67.8767011 C94.5582103,66.3209474 96.3524976,65.0573999 98.0110749,65.0544854 L125.998449,65.0053051 C127.656137,65.0023921 128.521111,66.2570064 127.931545,67.8046176 L114.068378,104.195413 C113.478309,105.744344 111.665453,107 109.998607,107 L82.0022574,107 Z" id="bg" fill="#ECEEF8"></path>
                    <path d="M108.380724,88.1288048 L108.617101,87.9355728 C108.939848,87.5742149 109.212969,87.1841185 109.436473,86.7652718 C109.659977,86.3464252 109.823036,85.9111598 109.931252,85.4348245 C110.071187,84.8188736 110.091961,84.2419415 109.993573,83.704011 C109.895186,83.1660806 109.692703,82.6979649 109.386118,82.29965 C109.079534,81.901335 108.680097,81.5851516 108.187794,81.3510903 C107.695492,81.1170289 107.124469,81 106.474708,81 C105.824948,81 105.198745,81.1170289 104.596081,81.3510903 C103.993417,81.5851516 103.447376,81.9054413 102.957943,82.3119689 C102.46851,82.7184965 102.050391,83.1907185 101.703572,83.728649 C101.356754,84.2665794 101.11338,84.8435115 100.967848,85.4841003 C100.827913,86.1000513 100.807139,86.6769833 100.905527,87.2149138 C101.003914,87.7528442 101.206397,88.2209599 101.512982,88.6192749 C101.819566,89.0175898 102.219003,89.3337732 102.711306,89.5678345 C103.203608,89.8018959 103.774631,89.9189248 104.424392,89.9189248 C104.511657,89.9189248 104.59846,89.916761 104.684799,89.9124333 L104.642823,89.9506 L108.776097,89.9506 L109.189982,88.1288048 L108.380724,88.1288048 Z M105.782922,82.7615651 C105.882179,82.7499613 105.981771,82.744 106.081324,82.744 C107.508032,82.744 108.386453,83.9683445 108.043333,85.47865 C107.700212,86.9889555 106.265483,88.2133 104.838776,88.2133 C103.412068,88.2133 102.533647,86.9889555 102.876767,85.47865 C102.979229,85.0276463 103.179032,84.6021424 103.446895,84.2271261 C103.621606,83.9707761 103.823039,83.7409769 104.051198,83.5377237 C104.327766,83.2913465 104.636321,83.0983539 104.976871,82.9587401 C105.235075,82.8528856 105.503757,82.7871609 105.782922,82.7615651 Z" id="Combined-Shape" fill="#E0DDFB"></path>
                    <path d="M32,95 C32,95 33.0051972,104.343768 34,108 C35.8613668,111.21142 40,116 40,116 C40,116 53.2467471,116.659075 62,115 C71.5785901,112.439702 81,109 81,109 L89,109 L93,105 L97,102 L96,99 L88,97 L99,91 L97,89 L84,94 L80,101 L51,100 L51,89 C51,89 45.8269151,91.7636329 42,93 C38.1209628,93.5020734 32,95 32,95 Z" id="bg" fill="#F8D7B4"></path>
                </g>
            </g>
        </g>
    </g>
</svg>