<?xml version="1.0" encoding="utf-8"?>
<!-- Generator: Adobe Illustrator 19.0.0, SVG Export Plug-In . SVG Version: 6.00 Build 0)  -->
<svg version="1.1" id="Calque_1" xmlns="http://www.w3.org/2000/svg" xmlns:xlink="http://www.w3.org/1999/xlink" x="0px" y="0px"
	 viewBox="-310 114.3 220 368" style="enable-background:new -310 114.3 220 368;" xml:space="preserve">
<style type="text/css">
	.st0{fill:#0B3BDE;fill-opacity:7.050000e-02;}
	.st1{fill:#0B3BDE;}
	.st2{fill:#584CE6;}
</style>
<title>map</title>
<desc>Created with Sketch.</desc>
<g id="ILLUSTRATION" transform="translate(150.000000, 418.000000)">
	<g id="map" transform="translate(107.000000, 0.000000)">
		<g id="bg">
			<polygon class="st0" points="-475,-23.7 -481,-14.7 -498,-10.7 -499,-3.7 -495,11.3 -472,12.3 -472,17.3 -467,23.3 -466,50.3 
				-462,60.3 -445,64.3 -400,25.3 -417,10.3 -459,-12.7 			"/>
			<path class="st0" d="M-410-136.7l-10,31c0,0-9.4,7.4-9,7c-0.4,0.4-39.3,23.3-41,27c-2.5,3.5-9.8,13.6-4,25c6.8,11.6,43,35,43,35
				l34,18l6-4l-39-26l26-43l-7-27L-410-136.7z"/>
			<polygon class="st0" points="-490,-50.7 -487,-37.7 -477,-25.7 -483,-16.7 -511,-10.7 -512,-17.7 -532,-10.7 -538,-21.7 
				-558,-16.7 -560,-40.7 -550,-72.7 -538,-64.7 -525,-59.7 -511,-44.7 -502,-44.7 -501,-48.7 			"/>
			<polygon class="st0" points="-502,-284.7 -517,-277.7 -525,-276.7 -528,-269.7 -523,-221.7 -492,-218.7 -492,-208.7 -518,-208.7 
				-518,-202.7 -502,-201.7 -501,-194.7 -511,-166.7 -507,-126.7 -474,-92.7 -427,-123.7 -426,-157.7 -419,-174.7 -418,-224.7 
				-427,-235.7 -454,-303.7 -465,-303.7 -477,-297.7 -505,-291.7 			"/>
			<path class="st0" d="M-476-90.7c0,0-8.7,12.1-9,12c0.3,0.1-4,9-4,9l-2,16l-13,3v3h-6l-12-13l-18-10l-9-6l7-20v-6l33-22L-476-90.7
				z"/>
		</g>
	</g>
</g>
<path id="poi" class="st1" d="M-213.5,195.3c0,0,9.5-9,9.5-14.3c0-5.3-4.3-9.7-9.5-9.7s-9.5,4.3-9.5,9.7
	C-223,186.3-213.5,195.3-213.5,195.3z"/>
<path id="poi_1_" class="st1" d="M-245.5,325.3c0,0,9.5-9,9.5-14.3c0-5.3-4.3-9.7-9.5-9.7s-9.5,4.3-9.5,9.7
	C-255,316.3-245.5,325.3-245.5,325.3z"/>
<path id="poi_3_" class="st2" d="M-173.5,442.3c0,0,9.5-9,9.5-14.3c0-5.3-4.3-9.7-9.5-9.7s-9.5,4.3-9.5,9.7
	C-183,433.3-173.5,442.3-173.5,442.3z"/>
</svg>
