<?xml version="1.0" encoding="UTF-8"?>
<svg width="318px" height="166px" viewBox="0 0 318 166" version="1.1" xmlns="http://www.w3.org/2000/svg" xmlns:xlink="http://www.w3.org/1999/xlink">
    <!-- Generator: Sketch 42 (36781) - http://www.bohemiancoding.com/sketch -->
    <title>map</title>
    <desc>Created with Sketch.</desc>
    <defs>
        <circle id="path-1" cx="159" cy="159" r="5"></circle>
        <filter x="-50%" y="-50%" width="200%" height="200%" filterUnits="objectBoundingBox" id="filter-2">
            <feGaussianBlur stdDeviation="11.5" in="SourceAlpha" result="shadowBlurInner1"></feGaussianBlur>
            <feOffset dx="0" dy="0" in="shadowBlurInner1" result="shadowOffsetInner1"></feOffset>
            <feComposite in="shadowOffsetInner1" in2="SourceAlpha" operator="arithmetic" k2="-1" k3="1" result="shadowInnerInner1"></feComposite>
            <feColorMatrix values="0 0 0 0 0.905   0 0 0 0 0.9563   0 0 0 0 1  0 0 0 1 0" type="matrix" in="shadowInnerInner1"></feColorMatrix>
        </filter>
        <path d="M91.4343481,30.2673072 L91.2505184,29.9774591 C91.085877,29.4354223 91.0212044,28.8502777 91.0564985,28.2220078 C91.0917927,27.5937378 91.2323916,26.9408396 91.4917125,26.2263367 C91.8270414,25.3024104 92.3067524,24.4370123 92.93086,23.6301166 C93.5549675,22.8232209 94.2735618,22.1210473 95.0866645,21.5235749 C95.8997671,20.9261025 96.7795678,20.4518274 97.7260928,20.1007354 C98.6726178,19.7496434 99.6337122,19.5741 100.609405,19.5741 C101.585098,19.5741 102.42178,19.7496434 103.119478,20.1007354 C103.817176,20.4518274 104.353487,20.932262 104.728426,21.5420534 C105.103366,22.1518448 105.313044,22.8601777 105.357467,23.6670734 C105.401889,24.4739692 105.256438,25.3393672 104.907696,26.3002505 C104.572368,27.2241769 104.092657,28.0895749 103.468549,28.8964707 C102.844441,29.7033664 102.125847,30.4055399 101.312744,31.0030123 C100.499642,31.6004847 99.6198412,32.0747598 98.6733162,32.4258518 C97.7267912,32.7769439 96.7656968,32.9524872 95.7900041,32.9524872 C95.6589644,32.9524872 95.5305363,32.9492415 95.4047199,32.9427499 L95.4339526,33 L89.2273502,33 L90.2191507,30.2673072 L91.4343481,30.2673072 Z M100.088158,22.2164477 C99.9493871,22.199042 99.805117,22.1901 99.6556264,22.1901 C97.513256,22.1901 95.1099774,24.0266168 94.2877534,26.292075 C93.4655295,28.5575332 94.5357196,30.39405 96.6780901,30.39405 C98.8204605,30.39405 101.223739,28.5575332 102.045963,26.292075 C102.291494,25.6155695 102.368273,24.9773137 102.298143,24.4147892 C102.262807,24.0302641 102.163831,23.6855653 102.001215,23.3806855 C101.804096,23.0111197 101.51167,22.7216308 101.123929,22.5122102 C100.829946,22.3534285 100.484691,22.2548414 100.088158,22.2164477 Z" id="path-3"></path>
        <path d="M0,40.5 L7.50809061,27 L12.012945,18 C12.012945,18 7.76928977,18.3740939 7.50809061,13.5 C7.76928977,10.0520099 12.012945,7.5 12.012945,7.5 L13.5145631,16.5 L18.0194175,16.5 L18.0194175,7.5 C18.0194175,7.5 22.3604406,8.65232542 24.02589,6 C25.7217202,3.46784951 27.0291262,0 27.0291262,0 L36.038835,0 C36.038835,0 37.5773816,1.60277173 39.0420712,4.5 C39.3161037,6.06008747 42.0453074,22.5 42.0453074,22.5 L37.5404531,22.5 L36.2052717,34.503683 C36.1133512,35.3300761 35.372542,36.133115 34.573376,36.292776 L28.5307443,37.5 L30.0323625,49.5 L30.0323625,57 L0,57 L0,40.5 Z" id="path-5"></path>
        <ellipse id="path-7" cx="1.50161812" cy="1.5" rx="1.50161812" ry="1.5"></ellipse>
    </defs>
    <g id="website" stroke="none" stroke-width="1" fill="none" fill-rule="evenodd">
        <g id="pricing-default" transform="translate(0.000000, -3376.000000)">
            <g id="team" transform="translate(0.000000, 2856.000000)">
                <g id="map" transform="translate(0.000000, 520.000000)">
                    <circle id="bg" fill-opacity="0.1394" fill="#8256F5" cx="159" cy="159" r="159"></circle>
                    <g id="bg" fill-opacity="1" fill="black">
                        <use filter="url(#filter-2)" xlink:href="#path-1"></use>
                    </g>
                    <path d="M115.374032,65.7920674 L122.049333,72.4673676 L115.469068,79.0476326 L108.793767,72.3723324 L115.374032,65.7920674 Z M141.120432,65.7920674 L147.795733,72.4673676 L141.215468,79.0476326 L134.540167,72.3723324 L141.120432,65.7920674 Z M89.6277324,31.9524674 L96.3030326,38.6277676 L89.7227676,45.2080326 L83.0474674,38.5327324 L89.6277324,31.9524674 Z M115.374032,31.9524674 L122.049333,38.6277676 L115.469068,45.2080326 L108.793767,38.5327324 L115.374032,31.9524674 Z M126.530832,48.8722674 L133.206133,55.5475676 L126.625868,62.1278326 L119.950567,55.4525324 L126.530832,48.8722674 Z M152.277132,48.8722674 L158.952433,55.5475676 L152.372168,62.1278326 L145.696867,55.4525324 L152.277132,48.8722674 Z" id="data" fill-opacity="0.2" fill="#FFFFFF"></path>
                    <path d="M64.0404,32.9018893 L64.0404,58.95665 L102.4603,58.95665 L102.4603,55.083629 L64.0404,32.9018893 Z M64.0404,28.1485975 C64.3024471,28.186348 64.5620814,28.2737811 64.8059227,28.4145629 L145.942627,75.2588612 C146.964835,75.8490332 147.319795,77.1479408 146.726273,78.17595 C146.136861,79.1968417 144.833029,79.5475354 143.808177,78.9558371 L116.418951,63.1426599 C116.231741,63.196635 116.034084,63.22555 115.829884,63.22555 L106.7292,63.22555 L106.7292,100.95815 L125.825748,100.95815 C127.006092,100.95815 127.96295,101.905557 127.96295,103.0926 C127.96295,104.271424 127.009145,105.22705 125.825748,105.22705 L64.0404,105.22705 L64.0404,115.855877 C64.0404,117.040043 63.0929927,118 61.90595,118 C60.7271258,118 59.7715,117.04036 59.7715,115.855877 L59.7715,105.22705 L32.1371517,105.22705 C30.9568078,105.22705 29.99995,104.279643 29.99995,103.0926 C29.99995,101.913776 30.953755,100.95815 32.1371517,100.95815 L59.7715,100.95815 L59.7715,5.14412334 C59.7715,3.95995672 60.7189073,3 61.90595,3 C63.0847742,3 64.0404,3.95964014 64.0404,5.14412334 L64.0404,28.1485975 Z M109.168569,58.95665 L106.7292,57.5482795 L106.7292,58.95665 L109.168569,58.95665 Z M64.0404,63.22555 L64.0404,100.95815 L102.4603,100.95815 L102.4603,63.22555 L64.0404,63.22555 Z" id="street" fill="#FFFFFF" opacity="0.5" transform="translate(88.507025, 60.500000) scale(1, -1) translate(-88.507025, -60.500000) "></path>
                    <path d="M52.9305496,131.901889 L52.9305496,199.95815 L91.3504496,199.95815 L91.3504496,154.083629 L52.9305496,131.901889 Z M52.9305496,127.148597 C53.1925967,127.186348 53.452231,127.273781 53.6960722,127.414563 L134.832777,174.258861 C135.854985,174.849033 136.209944,176.147941 135.616423,177.17595 C135.027011,178.196842 133.723179,178.547535 132.698327,177.955837 L95.6193496,156.54828 L95.6193496,199.95815 L114.715898,199.95815 C115.896242,199.95815 116.8531,200.905557 116.8531,202.0926 C116.8531,203.271424 115.899295,204.22705 114.715898,204.22705 L52.9305496,204.22705 L52.9305496,214.855877 C52.9305496,216.040043 51.9831423,217 50.7960996,217 C49.6172754,217 48.6616496,216.04036 48.6616496,214.855877 L48.6616496,204.22705 L21.0273013,204.22705 C19.8469574,204.22705 18.8900996,203.279643 18.8900996,202.0926 C18.8900996,200.913776 19.8439046,199.95815 21.0273013,199.95815 L48.6616496,199.95815 L48.6616496,104.144123 C48.6616496,102.959957 49.6090569,102 50.7960996,102 C51.9749238,102 52.9305496,102.95964 52.9305496,104.144123 L52.9305496,127.148597 Z" id="street" fill="#FFFFFF" opacity="0.5" transform="translate(77.397175, 159.500000) scale(-1, -1) translate(-77.397175, -159.500000) "></path>
                    <path d="M87.5,55 C87.5,55 100,43.3819999 100,36.4861111 C100,29.5902224 94.4035594,24 87.5,24 C80.5964406,24 75,29.5902224 75,36.4861111 C75,43.3819999 87.5,55 87.5,55 Z" id="poi" fill-opacity="0.2499" fill="#8256F5"></path>
                    <path d="M35.5,115 C35.5,115 48,103.382 48,96.4861111 C48,89.5902224 42.4035594,84 35.5,84 C28.5964406,84 23,89.5902224 23,96.4861111 C23,103.382 35.5,115 35.5,115 Z" id="poi" fill-opacity="0.2499" fill="#8256F5"></path>
                    <g id="person" transform="translate(68.000000, 0.000000)">
                        <path d="M0.942658357,99.3542415 C-0.835079107,89.5725377 5.78940825,81.6429 15.7202546,81.6429 L72.2635501,81.6429 L87.6855715,166.5 L13.1458013,166.5 L0.942658357,99.3542415 Z" id="bg" fill="#584CE6" opacity="0.5798"></path>
                        <polygon id="bg" fill="#997871" points="69.9969322 147.5256 101.182368 151.622992 119.621535 166.5 64.0218718 166.5"></polygon>
                        <path d="M139.604331,130.830236 L151.783323,134.814183 L159.293534,128.928036 L166.754799,127.17525 L168.08766,129.422734 L183.758198,128.895391 L182.511935,137.738423 L175.004234,138.811942 L160.723035,149.285969 L146.490783,154.2342 C146.490783,154.2342 136.273432,154.200299 133.13832,152.388501 C130.003209,150.576703 126.120088,146.720406 126.120088,146.720406 C126.120088,146.720406 127.066395,130.87167 131.422669,130.147202 C135.778943,129.422734 139.604331,130.830236 139.604331,130.830236 Z" id="bg" fill="#997871"></path>
                        <g id="mac" transform="translate(90.851133, 115.500000)">
                            <path d="M66.8270634,51 L106.945778,51 C109.416404,51 112.389031,49.2272952 113.559499,47.0405531 L136.618933,3.95944691 C137.790664,1.77034594 136.72604,0 134.24385,0 L83.436876,0 C80.96625,0 77.9936226,1.77270477 76.823155,3.95944691 L54.0530548,46.5 L2.41755221,46.5 C1.17128965,46.5 0.168331392,47.5073593 0.168331392,48.75 C0.168331392,50.0013041 1.17534185,51 2.41755221,51 L66.8270634,51 Z" id="bg" fill="#CDBCFA"></path>
                            <mask id="mask-4" fill="white">
                                <use xlink:href="#path-3"></use>
                            </mask>
                            <use id="Combined-Shape" fill="#FFFFFF" xlink:href="#path-3"></use>
                        </g>
                        <ellipse id="bg" fill="#253238" cx="106.618123" cy="15.75" rx="12.763754" ry="12.75"></ellipse>
                        <ellipse id="bg" fill="#253238" cx="108.87055" cy="13.5" rx="13.5145631" ry="13.5"></ellipse>
                        <path d="M93.1035599,47.9999949 C104.299391,47.9999949 110.372168,34.4337626 110.372168,23.2499977 C110.372168,12.0662328 101.296154,3 90.1003236,3 C78.904493,3 69.828479,12.0662328 69.828479,23.2499977 C69.828479,28.4582817 84.040747,54.7953 84.040747,54.7953 C84.040747,54.7953 87.1216322,47.9999949 93.1035599,47.9999949 Z" id="bg" fill="#253238"></path>
                        <rect id="Rectangle-2" fill="#D4F3EF" x="87.8478964" y="78" width="25.5275081" height="22.5"></rect>
                        <g id="head" transform="translate(74.333333, 21.000000)">
                            <mask id="mask-6" fill="white">
                                <use xlink:href="#path-5"></use>
                            </mask>
                            <use id="bg" fill="#997871" xlink:href="#path-5"></use>
                            <g id="Group-4" mask="url(#mask-6)">
                                <g transform="translate(31.533981, 13.500000)">
                                    <path d="M10.0106874,14.5391155 C10.0107874,14.5260804 10.0108375,14.5130336 10.0108375,14.499975 C10.0108375,14.4869164 10.0107874,14.4738695 10.0106874,14.4608345 L10.0106874,14.4999 L5.00534369,14.4999 L5.00534369,11.999925 L5.00534369,14.4999 L5.11404552e-10,14.4999 C0,17.2613876 2.24096174,19.4999595 5.00534369,19.5 L5.00534369,14.50005 L10.0106874,14.50005 L10.0106874,14.5391155 Z" id="smile" stroke="none" fill="#7F605A" fill-rule="evenodd"></path>
                                    <mask id="mask-8" fill="white">
                                        <use xlink:href="#path-7"></use>
                                    </mask>
                                    <use id="eye" stroke="none" fill="#7F605A" fill-rule="evenodd" xlink:href="#path-7"></use>
                                </g>
                            </g>
                            <polygon id="shadow" fill="#462C26" opacity="0.3" mask="url(#mask-6)" transform="translate(31.533981, 55.500000) scale(-1, 1) translate(-31.533981, -55.500000) " points="15.0161812 37.5 48.0517799 37.5 15.0161812 73.5"></polygon>
                        </g>
                        <path d="M35.1492091,166.940256 L40.7868829,134.771465 C40.7868829,134.771465 34.3284079,105.456189 45.219711,89.97489 C56.111014,74.4935915 69.2915239,64.9059845 69.2915239,64.9059845 L76.2589669,59.46765 L101.046738,87.9559178 L103.165259,63.4670901 C103.165259,63.4670901 130.239343,81.6953878 132.166898,94.7737159 C134.094453,107.852044 141.424129,131.999145 141.424129,131.999145 C141.424129,131.999145 136.564585,128.322807 131.41387,135.587592 C126.263154,142.852376 126.263154,147.29964 126.263154,147.29964 L115.61031,122.024819 L101.217425,152.482673 L70.0194515,149.866045 L68.5259448,167.53875" id="bg" fill="#584CE7"></path>
                    </g>
                </g>
            </g>
        </g>
    </g>
</svg>