<?xml version="1.0" encoding="UTF-8"?>
<svg width="102px" height="293px" viewBox="0 0 102 293" version="1.1" xmlns="http://www.w3.org/2000/svg" xmlns:xlink="http://www.w3.org/1999/xlink">
    <!-- Generator: Sketch 42 (36781) - http://www.bohemiancoding.com/sketch -->
    <title>person</title>
    <desc>Created with Sketch.</desc>
    <defs>
        <path d="M2,17.9999889 C2,20.7115729 3.31368868,24.7936674 5,24.9999846 C5.79401452,25.7011734 10,27.9999828 10,27.9999828 L8,34.9999785 C8,34.9999785 14.9875889,37.4646769 18,34.9999785 C21.0124111,32.53528 23,26.9999834 23,26.9999834 L23,18.9999883 C23,18.9999883 26,18.0298466 26,15.9999902 C26,13.6100657 26,9.99999385 26,9.99999385 L23,11.9999926 C23,11.9999926 17.2551089,9.99770429 16,6.99999569 C15.5465911,4.52659582 14,0 14,0 C14,0 12.4079334,3.04128028 9,2.99999815 C6.35077032,3.04128028 2,2.99999815 2,2.99999815 L0,15.9999902 L2,15.9999902 L2,17.9999889 Z" id="path-1"></path>
        <circle id="path-3" cx="6" cy="1" r="1"></circle>
    </defs>
    <g id="website" stroke="none" stroke-width="1" fill="none" fill-rule="evenodd">
        <g id="home" transform="translate(-1088.000000, -4011.000000)">
            <g id="contact" transform="translate(0.000000, 4001.000000)">
                <g id="person" transform="translate(1088.000000, 10.000000)">
                    <polygon id="bg" fill="#003979" points="31 244 34 263 19 270 42 270 41 240 32 243"></polygon>
                    <polygon id="bg" fill="#003979" points="78 252 84 273 82 280 102 293 92 273 88 241"></polygon>
                    <path d="M38,102 L24,175 L29,250 L43,250 C43,250 46.176814,207.342811 46,194 C46.176814,180.429359 43,174 43,174 L52,156 L77,261 L93,261 C93,261 89.8098415,222.19334 84,205 C78.5938282,187.943199 76,186 76,186 C76,186 84.1150959,158.568029 80,138 C76.295246,117.569471 68,97 68,97 C68,97 61.4862385,103.066557 50,103 C38.0767306,103.066557 38,102 38,102 Z" id="bg" fill="#03254C"></path>
                    <path d="M14,46 L12,44 L3,43 L0,46 L1,50 L6,52 C6,52 7.62758906,55.841747 11,58 C13.8670257,60.426852 14,62 14,62 C14,62 13.518227,74.9553101 17,82 C21.0095278,89.7269241 23.7439934,94 27,94 C31.096106,94 39,83 39,83 L39,61 L30,63 L28,71 L20,56 L18,48 L16,46 L14,46 Z" id="bg" fill="#7C5249"></path>
                    <path d="M39.0000006,11.9999967 C39.0000006,11.9999967 35,11.4836437 35,5.99999616 C35,0.384908139 40.481442,-1.19215401 45.0000015,0.999995743 C49.8977467,2.92653683 52.0000026,5.99999616 52.0000026,5.99999616 C52.0000026,5.99999616 61.294564,5.26289448 62.0000041,9.99999649 C63.2632393,13.8784725 61.000004,21.9999975 61.000004,21.9999975 L58.0000035,26.9999979 C58.0000035,26.9999979 61.3656532,32.0551194 68.000005,31.9999983 C74.6977475,32.0551194 78.408294,35.6189564 78.0000066,41.9999992 C77.5201511,48.4892432 76.0000063,52 76.0000063,52 L53.0000028,38.9999989 L39.0000006,11.9999967 Z" id="bg" fill="#243138"></path>
                    <path d="M45.9999908,38.9999985 C45.9999908,38.9999985 36.5305204,43.8185496 32.9999971,53.9999913 C29.7322572,63.6032838 27,69.9999835 27,69.9999835 L34.9999961,78.9999792 C34.9999961,78.9999792 36.8450249,88.5007216 36.9999951,92.9999724 C36.8450249,97.8524178 37.9999947,102.999968 37.9999947,102.999968 C37.9999947,102.999968 43.6449433,105.254875 51.9999878,103.999967 C60.0504914,102.045732 67.9999801,97.99997 67.9999801,97.99997 C67.9999801,97.99997 70.3265122,74.2721905 69.9999791,73.9999816 C70.3265122,74.2721905 71.9999781,73.9999816 71.9999781,73.9999816 C71.9999781,73.9999816 72.7734413,74.5388377 74.9999767,74.9999811 C76.9249008,74.5388377 82.6664695,70.301457 84.9999718,66.999985 C88.0693258,63.1273938 87.9999703,59.9999884 87.9999703,59.9999884 C87.9999703,59.9999884 82.9530404,54.704223 75.9999762,46.9999947 C68.3683078,39.1983465 56.9999854,36 56.9999854,36 L56.9999854,38.9999985 L47.9999898,42.9999966 L45.9999908,38.9999985 Z" id="bg" fill="#FFDF4B"></path>
                    <path d="M67,94 L64,90 L61,90 L57,87 L50,88 L50,95 L54,98 L62,104 L67,104 L72,101 C72,101 80.2852124,95.2156488 86,92 C90.7887253,88.4366007 95,80 95,80 L87,63 C87,63 85.8229341,65.8149315 82,69 C77.8160756,72.0026299 76,74 76,74 L81,79 C81,79 76.0090753,81.0101201 74.4111328,85.1767578 C72.3347695,89.208903 67,94 67,94 Z" id="bg" fill="#7C5249"></path>
                    <g id="head" transform="translate(36.000000, 9.000000)">
                        <mask id="mask-2" fill="white">
                            <use xlink:href="#path-1"></use>
                        </mask>
                        <use id="bg" fill="#7C5249" xlink:href="#path-1"></use>
                        <g id="Group-3" mask="url(#mask-2)">
                            <g transform="translate(0.000000, 9.000000)">
                                <path d="M6.9999,9.69274363 C6.99996663,9.68405363 7,9.67535571 7,9.66665 C7,9.65794429 6.99996663,9.64924637 6.9999,9.64055637 L6.9999,9.6666 L3.6666,9.6666 L3.6666,7.99995 L3.6666,9.6666 L0.3333,9.6666 C0.3333,11.5075917 1.82566461,12.999973 3.6666,13 L3.6666,9.6667 L6.9999,9.6667 L6.9999,9.69274364 Z" id="smile" stroke="none" fill="#58352E" fill-rule="evenodd" transform="translate(3.666650, 9.666650) scale(-1, 1) translate(-3.666650, -9.666650) "></path>
                                <mask id="mask-4" fill="white">
                                    <use xlink:href="#path-3"></use>
                                </mask>
                                <use id="eye" stroke="none" fill="#4A2922" fill-rule="evenodd" xlink:href="#path-3"></use>
                            </g>
                        </g>
                        <polygon id="shadow" fill="#462C26" opacity="0.4033" mask="url(#mask-2)" points="-5 28 17 28 -5 52"></polygon>
                    </g>
                </g>
            </g>
        </g>
    </g>
</svg>